<?xml version="1.0" encoding="UTF-8"?><svg id="Layer_2" xmlns="http://www.w3.org/2000/svg" viewBox="0 0 432 90.63"><defs><style>.cls-1{fill:#fff;}</style></defs><g id="Layer_1-2"><path class="cls-1" d="m268.61,35.13c-1.75-2.58-2.75-5.73-2.75-9.11v-.14c0-8.55,6.27-15.53,15.3-15.53h.14c9.04,0,15.3,6.98,15.3,15.53v.14c0,2.7-.54,5.19-1.52,7.34l-3.08-2.71-6.93,7.92c6.05,1.01,12.32,1.79,18.77,2.32h-.01c2.92-4.23,4.52-9.18,4.52-14.5v-.14c0-14.5-11.29-26.23-27.03-26.23s-27.18,11.88-27.18,26.38v.15c0,1.5.13,2.97.36,4.4,4.5,1.56,9.21,2.96,14.11,4.21Z"/><path class="cls-1" d="m346.77,40.82c3.52-.29,7-.64,10.44-1.06,1.03-2.88,1.57-6.25,1.57-10.11V.88h-11.22v29.21c0,5.61-2,9.32-5.5,11.07,1.57-.1,3.14-.22,4.71-.35Z"/><path class="cls-1" d="m377.87,36.44V.88h-11.22v37.58c3.8-.6,7.54-1.27,11.22-2.01Z"/><path class="cls-1" d="m397.76,31.57v-12.12l7.47,9.81c3.61-1.18,7.12-2.44,10.54-3.77L397.03.88h-10.35v33.62c3.77-.9,7.46-1.88,11.07-2.93Z"/><path class="cls-1" d="m332.2,41.62c-4.21-1.53-6.64-5.54-6.64-11.89V.88h-11.22v29.14c0,4.54.77,8.4,2.21,11.58,5.13.16,10.36.17,15.65.02Z"/><path class="cls-1" d="m386.68,39.55v12.32h11.07v-14.29c-3.64.71-7.33,1.36-11.07,1.97Z"/><path class="cls-1" d="m366.65,42.25v9.63h11.22v-11c-3.7.51-7.44.97-11.22,1.38Z"/><path class="cls-1" d="m354.94,43.34c-12.59.98-24.89,1.34-36.79,1.12,3.73,5.46,10.03,8.22,18.26,8.22,8.77,0,15.47-3.11,19.16-9.39-.21.02-.42.04-.63.05Z"/><path class="cls-1" d="m278.99,41.54c-.09-.01-.18-.02-.27-.04-7.73-1.05-15.15-2.37-22.21-3.93,4.11,8.97,13.2,15.18,24.65,15.18,5.68,0,10.93-1.68,15.22-4.45l8.05,7.2,7.18-8.14-3.89-3.24c-9.95-.47-19.55-1.34-28.73-2.58Z"/><path class="cls-1" d="m420.93,32.28h0c-3.68.98-7.44,1.91-11.27,2.79l12.8,16.8h9.55v-22.77c-3.61,1.11-7.3,2.17-11.07,3.17h0Z"/><path class="cls-1" d="m420.93.88v22.54c3.83-1.61,7.52-3.31,11.07-5.08V.88h-11.07Z"/><path class="cls-1" d="m92.64,16.31c3.94-.24,7.84-.43,11.71-.57,2.67-3.29,6.58-5.39,10.98-5.39,5.9,0,9.4,1.89,13.34,5.17l7.07-8.52c-5.32-4.52-10.86-7-20.04-7-11.7,0-21.01,6.82-24.84,16.42.59-.04,1.19-.08,1.78-.11Z"/><path class="cls-1" d="m156.74,17.02c2.66-4.03,7.12-6.67,12.62-6.67,6.91,0,12.28,4.26,14.43,10.17,4.34.76,8.53,1.59,12.55,2.49-1.54-12.98-12.28-23.01-26.84-23.01-11.79,0-21.17,6.67-25.13,16.12,4.2.24,8.33.54,12.37.9Z"/><path class="cls-1" d="m68.28,18.45V.88h-11.22v19.02c3.68-.52,7.43-1,11.22-1.44Z"/><path class="cls-1" d="m236.72,32.28h0S212.82.88,212.82.88h-10.34v23.61c3.86.98,7.56,2.04,11.07,3.16v-8.18l24.7,32.42h9.55v-16.4c-3.82-.99-7.51-2.06-11.07-3.2h0Z"/><path class="cls-1" d="m202.48,51.88h11.07v-14.99c-3.52-1.71-7.21-3.31-11.07-4.81v19.8Z"/><path class="cls-1" d="m236.72.88v22.54c3.49,1.79,7.19,3.46,11.07,5.01V.88h-11.07Z"/><path class="cls-1" d="m184.8,26.32v.21c0,8.74-6.27,15.88-15.3,15.88s-15.45-7.29-15.45-16.03v-.14c0-2.04.34-3.98.98-5.77-3.84-.5-7.76-.92-11.73-1.25-.64,2.28-.98,4.68-.98,7.16v.15c0,14.5,11.29,26.23,27.03,26.23,14.46,0,25.29-10.04,26.95-22.92-3.7-1.27-7.54-2.44-11.5-3.52Z"/><path class="cls-1" d="m115.4,32.2h11.29v7.29c-2.84,2.04-6.48,3.06-10.56,3.06-9.04,0-15.45-6.85-15.45-16.18v-.14c0-2.69.62-5.24,1.73-7.48-2.11.12-4.23.27-6.36.43-2.11.17-4.2.36-6.29.57-.53,2.12-.81,4.34-.81,6.62v.15c0,15.08,10.93,26.23,26.81,26.23,9.32,0,16.54-3.64,21.78-8.09v-22.15h-22.15v9.69Z"/><path class="cls-1" d="m68.28,22.7c-3.8.66-7.54,1.39-11.22,2.19v26.99h31.86v-10.55h-20.64v-18.62Z"/><path class="cls-1" d="m3.82,42.89l-3.82,8.98h11.44l4.31-10.55h22.27l4.31,10.55h11.73l-10.13-23.8c-14.67,3.96-28.18,8.98-40.11,14.82Z"/><path class="cls-1" d="m21.74,26.56l5.15-12.57,4.27,10.45c3.39-.71,6.84-1.39,10.36-2.03L32.2.51h-10.34l-12.46,29.27c3.98-1.13,8.1-2.21,12.34-3.22Z"/><path class="cls-1" d="m229.37,75.34v-.08c0-8.46,6.33-15.38,15.34-15.38,5.48,0,8.8,1.91,11.64,4.63l-3.36,3.87c-2.38-2.21-4.93-3.7-8.33-3.7-5.7,0-9.82,4.67-9.82,10.5v.09c0,5.82,4.12,10.58,9.82,10.58,3.66,0,5.99-1.49,8.54-3.87l3.36,3.4c-3.11,3.23-6.5,5.27-12.07,5.27-8.67,0-15.13-6.76-15.13-15.3Z"/><path class="cls-1" d="m259.32,75.34v-.08c0-8.37,6.46-15.38,15.6-15.38s15.51,6.93,15.51,15.3v.09c0,8.37-6.46,15.38-15.6,15.38s-15.51-6.93-15.51-15.3Zm25.62,0v-.08c0-5.78-4.21-10.58-10.11-10.58s-10.03,4.72-10.03,10.5v.09c0,5.78,4.21,10.58,10.12,10.58s10.03-4.72,10.03-10.5Z"/><path class="cls-1" d="m295.82,60.38h5.23v24.99h15.64v4.76h-20.87v-29.75Z"/><path class="cls-1" d="m322.09,60.38h5.23v24.99h15.64v4.76h-20.87v-29.75Z"/><path class="cls-1" d="m348.37,60.38h22.06v4.67h-16.83v7.73h14.91v4.68h-14.91v7.99h17.04v4.67h-22.27v-29.75Z"/><path class="cls-1" d="m375.13,75.34v-.08c0-8.33,6.38-15.38,15.34-15.38,5.19,0,8.37,1.45,11.43,4.04l-3.31,3.95c-2.3-1.95-4.55-3.19-8.33-3.19-5.48,0-9.65,4.8-9.65,10.5v.09c0,6.12,4.04,10.62,10.12,10.62,2.8,0,5.36-.89,7.18-2.25v-5.57h-7.61v-4.55h12.66v12.49c-2.93,2.51-7.14,4.63-12.41,4.63-9.31,0-15.43-6.63-15.43-15.3Z"/><path class="cls-1" d="m409.73,60.38h22.05v4.67h-16.83v7.73h14.92v4.68h-14.92v7.99h17.04v4.67h-22.27v-29.75Z"/></g></svg>