<svg width="259" height="54" viewBox="0 0 259 54" fill="none" xmlns="http://www.w3.org/2000/svg">
<path d="M160.906 20.9687C159.854 19.4693 159.263 17.6445 159.263 15.6853V15.6004C159.263 10.6424 163.016 6.59667 168.426 6.59667H168.514C173.924 6.59667 177.677 10.6424 177.677 15.6004V15.6853C177.677 17.2484 177.356 18.6913 176.765 19.9432L174.917 18.3659L170.763 22.9633C174.392 23.5503 178.137 23.9959 182 24.3071C183.745 21.8528 184.701 18.9813 184.701 15.8975V15.8126C184.701 7.40298 177.94 0.598877 168.514 0.598877C159.087 0.598877 152.239 7.48785 152.239 15.8975V15.9824C152.239 16.8523 152.319 17.7081 152.458 18.5357C155.152 19.441 157.978 20.2544 160.906 20.9758V20.9687Z" fill="#00703C"/>
<path d="M207.709 24.2715C209.811 24.1018 211.9 23.8967 213.959 23.6562C214.572 21.987 214.893 20.0349 214.893 17.7928V1.10083H208.176V18.0474C208.176 21.3009 206.978 23.4511 204.883 24.4696C205.817 24.413 206.767 24.3423 207.709 24.2715Z" fill="#00703C"/>
<path d="M226.335 21.7324V1.10083H219.618V22.8994C221.896 22.5528 224.13 22.1638 226.335 21.7324Z" fill="#00703C"/>
<path d="M238.237 18.9035V11.8731L242.713 17.5596C244.874 16.8736 246.977 16.1451 249.021 15.3741L237.799 1.09399H231.6V20.5939C233.856 20.0705 236.068 19.5047 238.229 18.8964L238.237 18.9035Z" fill="#00703C"/>
<path d="M198.984 24.7386C196.464 23.8474 195.004 21.5275 195.004 17.8426V1.10815H188.287V18.0123C188.287 20.6434 188.747 22.8855 189.616 24.7315C192.69 24.8235 195.815 24.8306 198.984 24.7457V24.7386Z" fill="#00703C"/>
<path d="M231.607 23.5364V30.68H238.237V22.3906C236.053 22.8009 233.848 23.1828 231.607 23.5294V23.5364Z" fill="#00703C"/>
<path d="M219.61 25.0993V30.6798H226.328V24.3C224.115 24.5971 221.874 24.8588 219.61 25.0993Z" fill="#00703C"/>
<path d="M212.601 25.729C205.066 26.2948 197.698 26.507 190.572 26.3797C192.806 29.5483 196.581 31.1468 201.502 31.1468C206.752 31.1468 210.761 29.3432 212.973 25.7007C212.849 25.7078 212.718 25.7219 212.593 25.729H212.601Z" fill="#00703C"/>
<path d="M167.127 24.6893C167.076 24.6822 167.017 24.6752 166.966 24.6681C162.337 24.0598 157.898 23.296 153.663 22.3906C156.123 27.5892 161.563 31.1963 168.419 31.1963C171.822 31.1963 174.961 30.2203 177.531 28.6147L182.35 32.7877L186.651 28.0701L184.322 26.1888C178.364 25.92 172.617 25.4107 167.119 24.6893H167.127Z" fill="#00703C"/>
<path d="M252.11 19.314C249.905 19.8869 247.655 20.4245 245.363 20.9337L253.029 30.6801H258.747V17.468C256.585 18.1116 254.373 18.727 252.117 19.307L252.11 19.314Z" fill="#00703C"/>
<path d="M252.11 1.10107V14.1717C254.402 13.2381 256.615 12.255 258.739 11.2223V1.09399H252.11V1.10107Z" fill="#00703C"/>
<path d="M55.5445 10.0553C57.9029 9.91385 60.2395 9.80775 62.5541 9.72995C64.1531 7.82027 66.4969 6.60374 69.1255 6.60374C72.6594 6.60374 74.7549 7.70004 77.1133 9.60264L81.341 4.6587C78.1575 2.03467 74.8426 0.598877 69.3446 0.598877C62.3424 0.598877 56.7639 4.55261 54.4712 10.119C54.829 10.0977 55.1794 10.0765 55.5372 10.0553H55.5445Z" fill="#00703C"/>
<path d="M93.9286 10.4655C95.5203 8.1244 98.1928 6.59667 101.486 6.59667C105.626 6.59667 108.838 9.06509 110.123 12.4954C112.723 12.934 115.227 13.4149 117.644 13.9383C116.724 6.41277 110.291 0.591797 101.573 0.591797C94.5127 0.591797 88.8979 4.46066 86.5249 9.94213C89.0366 10.0836 91.5118 10.2533 93.9286 10.4655Z" fill="#00703C"/>
<path d="M40.9554 11.3002V1.10815H34.238V12.1348C36.4431 11.8306 38.6847 11.5548 40.9554 11.3002Z" fill="#00703C"/>
<path d="M141.812 19.3135L127.509 1.10083H121.317V14.7939C123.631 15.3597 125.844 15.9751 127.947 16.6258V11.8799L142.732 30.6866H148.449V21.1736C146.164 20.6007 143.952 19.9783 141.82 19.3135H141.812Z" fill="#00703C"/>
<path d="M121.309 30.687H127.939V21.9945C125.836 21.0043 123.624 20.0707 121.309 19.2078V30.6941V30.687Z" fill="#00703C"/>
<path d="M141.812 1.10083V14.1715C143.9 15.2112 146.12 16.1802 148.442 17.0784V1.10083H141.812Z" fill="#00703C"/>
<path d="M110.729 15.862V15.9822C110.729 21.0535 106.976 25.1911 101.566 25.1911C96.1553 25.1911 92.3147 20.9615 92.3147 15.8974V15.8125C92.3147 14.6313 92.5192 13.5067 92.8989 12.467C90.5989 12.177 88.255 11.9366 85.8747 11.7385C85.495 13.0612 85.2905 14.4545 85.2905 15.8903V15.9752C85.2905 24.3848 92.0519 31.1889 101.478 31.1889C110.138 31.1889 116.622 25.3679 117.615 17.899C115.395 17.1634 113.102 16.4844 110.729 15.862Z" fill="#00703C"/>
<path d="M69.1766 19.2711H75.9378V23.4936C74.2366 24.6818 72.0533 25.2689 69.6146 25.2689C64.2041 25.2689 60.3636 21.2939 60.3636 15.8903V15.8054C60.3636 14.2423 60.7359 12.7641 61.4003 11.4697C60.1372 11.5405 58.8667 11.6253 57.5962 11.7244C56.3331 11.8234 55.0773 11.9295 53.836 12.0497C53.5147 13.2804 53.3467 14.5676 53.3467 15.8903V15.9751C53.3467 24.7243 59.8889 31.1889 69.4028 31.1889C74.9885 31.1889 79.3038 29.0741 82.4435 26.4996V13.6552H69.1839V19.2782L69.1766 19.2711Z" fill="#00703C"/>
<path d="M40.9554 13.7617C38.6774 14.1437 36.4431 14.568 34.238 15.0348V30.6871H53.3171V24.562H40.9554V13.7617Z" fill="#00703C"/>
<path d="M2.36701 25.4744L0.0742188 30.6871H6.92318L9.50796 24.562H22.8477L25.4252 30.6871H32.4494L26.3818 16.8809C17.598 19.1725 9.50794 22.0865 2.36701 25.4744Z" fill="#00703C"/>
<path d="M13.0929 15.9963L16.1741 8.70419L18.7297 14.7656C20.7595 14.3483 22.8258 13.9593 24.936 13.5845L19.3577 0.888672H13.166L5.70361 17.8636C8.09122 17.2058 10.5519 16.5834 13.0929 15.9963Z" fill="#00703C"/>
<path d="M137.417 44.2877V44.2382C137.417 39.3297 141.206 35.3123 146.602 35.3123C149.888 35.3123 151.866 36.4227 153.575 37.9999L151.567 40.242C150.143 38.9619 148.617 38.099 146.58 38.099C143.17 38.099 140.702 40.8079 140.702 44.1887V44.2382C140.702 47.612 143.17 50.3775 146.58 50.3775C148.77 50.3775 150.165 49.5146 151.698 48.1354L153.706 50.1087C151.844 51.983 149.814 53.1642 146.478 53.1642C141.286 53.1642 137.417 49.2458 137.417 44.2877Z" fill="#00703C"/>
<path d="M155.342 44.2877V44.2382C155.342 39.3792 159.211 35.3123 164.68 35.3123C170.149 35.3123 173.968 39.3296 173.968 44.1887V44.2382C173.968 49.0902 170.098 53.1571 164.629 53.1571C159.16 53.1571 155.342 49.1397 155.342 44.2807V44.2877ZM170.682 44.2877V44.2382C170.682 40.8857 168.163 38.099 164.629 38.099C161.095 38.099 158.62 40.8362 158.62 44.1887V44.2382C158.62 47.5908 161.139 50.3775 164.68 50.3775C168.222 50.3775 170.682 47.6403 170.682 44.2877Z" fill="#00703C"/>
<path d="M177.196 35.6167H180.328V50.109H189.696V52.8674H177.203V35.6167H177.196Z" fill="#00703C"/>
<path d="M192.931 35.6167H196.063V50.109H205.431V52.8674H192.938V35.6167H192.931Z" fill="#00703C"/>
<path d="M208.666 35.6167H221.874V38.3256H211.798V42.8098H220.728V45.5187H211.798V50.1514H221.998V52.8604H208.666V35.6096V35.6167Z" fill="#00703C"/>
<path d="M224.685 44.2877V44.2382C224.685 39.4075 228.504 35.3123 233.87 35.3123C236.973 35.3123 238.887 36.1539 240.719 37.6534L238.733 39.945C237.361 38.8133 236.01 38.099 233.746 38.099C230.461 38.099 227.971 40.8857 227.971 44.1887V44.2382C227.971 47.7888 230.388 50.3987 234.031 50.3987C235.71 50.3987 237.236 49.8824 238.332 49.0902V45.865H233.775V43.2268H241.354V50.4765C239.595 51.9335 237.076 53.1642 233.921 53.1642C228.35 53.1642 224.685 49.3236 224.685 44.2877Z" fill="#00703C"/>
<path d="M245.407 35.6167H258.615V38.3256H248.539V42.8098H257.469V45.5187H248.539V50.1514H258.747V52.8604H245.414V35.6096L245.407 35.6167Z" fill="#00703C"/>
</svg>
