<?xml version="1.0" encoding="UTF-8"?>
<svg id="Layer_2" data-name="Layer 2" xmlns="http://www.w3.org/2000/svg" viewBox="0 0 61.76 46.71">
  <defs>
    <style>
      .cls-1 {
        fill: #006d41;
        stroke-width: 0px;
      }
    </style>
  </defs>
  <g id="OBJECTS">
    <path class="cls-1" d="m60.49,26.9c.05-.07.1-.14.15-.2.06-.08.12-.15.17-.23.06-.08.1-.17.15-.25.04-.07.09-.14.13-.22.05-.09.09-.18.13-.26.04-.08.07-.15.11-.23.04-.09.07-.18.1-.27.03-.08.06-.16.09-.25.03-.09.05-.18.07-.28.02-.08.04-.17.06-.25.02-.11.04-.22.05-.33,0-.07.02-.14.03-.21.04-.37.04-.74,0-1.11,0-.07-.02-.14-.03-.21-.02-.11-.03-.22-.05-.33-.02-.09-.04-.17-.06-.25-.02-.09-.04-.19-.07-.28-.03-.08-.06-.17-.09-.25-.03-.09-.06-.18-.1-.27-.03-.08-.07-.15-.11-.23-.04-.09-.08-.18-.13-.26-.04-.07-.09-.14-.13-.22-.05-.08-.1-.17-.15-.25-.05-.08-.11-.16-.17-.23-.05-.07-.1-.14-.15-.2-.12-.14-.24-.28-.37-.41L42.35,1.64c-2.18-2.18-5.72-2.18-7.9,0-2.18,2.18-2.18,5.72,0,7.9l8.23,8.23H5.59c-3.09,0-5.59,2.5-5.59,5.59s2.5,5.59,5.59,5.59h37.09l-8.23,8.23c-2.18,2.18-2.18,5.72,0,7.9,1.09,1.09,2.52,1.64,3.95,1.64s2.86-.55,3.95-1.64l17.77-17.77c.13-.13.25-.27.37-.41Z"/>
  </g>
</svg>