<svg id="svg" version="1.1" xmlns="http://www.w3.org/2000/svg" xmlns:xlink="http://www.w3.org/1999/xlink" width="400" height="69.16666666666667" viewBox="0, 0, 400,69.16666666666667"><g id="svgg"><path id="path0" d="M0.000 17.510 L 0.000 25.520 1.208 25.421 C 1.873 25.366,2.829 25.250,3.333 25.164 C 3.837 25.078,5.862 24.892,7.833 24.751 C 9.804 24.610,11.904 24.417,12.500 24.322 C 13.096 24.226,15.346 23.999,17.500 23.817 C 19.654 23.635,23.254 23.307,25.500 23.089 C 27.746 22.871,31.308 22.539,33.417 22.351 C 35.525 22.164,37.737 21.930,38.333 21.831 C 38.929 21.733,41.067 21.504,43.083 21.323 C 45.100 21.142,47.425 20.920,48.250 20.831 C 54.002 20.203,54.729 20.184,60.448 20.502 C 63.457 20.670,66.106 20.850,66.335 20.904 C 66.563 20.957,69.362 21.149,72.554 21.331 C 75.746 21.513,78.412 21.696,78.478 21.737 C 78.545 21.778,80.733 21.930,83.341 22.074 C 85.949 22.219,88.683 22.411,89.417 22.501 C 90.150 22.591,93.366 22.817,96.563 23.002 C 99.760 23.188,102.431 23.374,102.499 23.416 C 102.566 23.458,105.413 23.643,108.825 23.828 C 112.237 24.014,115.082 24.198,115.147 24.238 C 115.212 24.278,117.849 24.428,121.007 24.573 C 124.166 24.717,127.537 24.909,128.500 25.001 C 129.462 25.092,133.577 25.317,137.644 25.501 C 141.710 25.686,145.086 25.867,145.146 25.904 C 145.205 25.941,148.253 26.090,151.919 26.236 C 155.584 26.382,159.591 26.579,160.823 26.674 C 162.054 26.770,166.667 26.996,171.073 27.177 C 175.479 27.358,180.096 27.582,181.333 27.675 C 185.139 27.961,191.290 27.932,193.750 27.617 C 194.942 27.464,197.454 27.154,199.333 26.927 C 205.360 26.199,212.221 25.345,219.500 24.417 C 221.379 24.177,224.379 23.799,226.167 23.576 C 227.954 23.353,230.917 22.981,232.750 22.748 C 241.109 21.689,248.193 20.835,253.417 20.258 C 255.433 20.036,257.308 19.808,257.583 19.753 C 258.072 19.655,260.389 19.413,268.668 18.596 C 270.914 18.375,272.939 18.152,273.168 18.101 C 273.396 18.050,275.046 17.894,276.833 17.754 C 278.621 17.615,280.608 17.427,281.250 17.336 C 281.892 17.245,284.415 17.020,286.857 16.837 C 289.299 16.653,291.399 16.469,291.524 16.427 C 291.648 16.385,293.625 16.234,295.917 16.092 C 298.208 15.949,300.758 15.755,301.583 15.660 C 302.929 15.505,307.063 15.232,317.750 14.591 C 319.675 14.476,321.025 14.373,320.750 14.363 C 320.475 14.352,311.287 14.457,300.333 14.595 C 255.778 15.158,198.664 15.331,166.167 15.002 C 148.416 14.823,118.427 14.374,111.250 14.181 C 107.722 14.087,105.512 14.088,105.394 14.186 C 105.190 14.355,97.801 14.187,97.907 14.016 C 97.941 13.961,96.213 13.942,94.068 13.974 C 91.922 14.005,90.167 13.968,90.167 13.891 C 90.167 13.813,88.696 13.776,86.899 13.807 C 85.024 13.840,83.565 13.799,83.476 13.710 C 83.389 13.622,82.391 13.588,81.180 13.632 C 78.750 13.720,76.318 13.551,76.684 13.319 C 76.863 13.206,76.838 13.171,76.575 13.169 C 76.387 13.168,76.158 13.242,76.065 13.335 C 75.885 13.515,70.461 13.364,70.574 13.183 C 70.608 13.128,69.367 13.108,67.818 13.139 C 66.268 13.170,65.000 13.132,65.000 13.056 C 65.000 12.979,63.910 12.943,62.578 12.974 C 61.246 13.006,60.027 12.981,59.870 12.919 C 59.712 12.856,58.502 12.793,57.180 12.778 C 55.385 12.757,54.760 12.696,54.706 12.535 C 54.656 12.383,54.573 12.370,54.428 12.491 C 54.210 12.671,50.000 12.537,50.000 12.349 C 50.000 12.295,48.988 12.276,47.750 12.308 C 46.513 12.340,45.500 12.302,45.500 12.225 C 45.500 12.147,44.506 12.075,43.292 12.065 C 42.077 12.054,40.392 12.040,39.548 12.034 C 37.732 12.020,36.467 11.855,36.595 11.648 C 36.718 11.448,36.441 11.459,36.238 11.662 C 36.065 11.835,32.631 11.693,32.740 11.517 C 32.774 11.462,31.909 11.443,30.817 11.476 C 29.726 11.508,28.833 11.471,28.834 11.393 C 28.834 11.314,28.043 11.276,27.077 11.307 C 26.111 11.338,25.192 11.309,25.035 11.242 C 24.878 11.175,24.182 11.136,23.489 11.156 C 21.955 11.201,20.957 11.040,21.117 10.773 C 21.189 10.652,21.138 10.658,20.976 10.789 C 20.717 10.999,17.500 10.901,17.500 10.683 C 17.500 10.628,16.675 10.609,15.667 10.640 C 14.658 10.671,13.834 10.633,13.834 10.556 C 13.834 10.480,13.152 10.441,12.319 10.471 C 11.486 10.500,10.679 10.474,10.527 10.413 C 10.375 10.352,9.544 10.291,8.680 10.276 C 7.565 10.258,7.090 10.188,7.039 10.035 C 6.990 9.886,6.905 9.871,6.765 9.987 C 6.554 10.163,3.666 10.035,3.667 9.850 C 3.667 9.795,2.917 9.774,2.000 9.803 C 0.898 9.838,0.333 9.795,0.333 9.678 C 0.333 9.580,0.258 9.500,0.167 9.500 C 0.058 9.500,0.000 12.281,0.000 17.510 M379.126 12.333 C 374.842 12.393,371.292 12.485,371.239 12.539 C 371.140 12.637,379.311 12.563,392.667 12.343 L 400.083 12.220 393.500 12.223 C 389.879 12.224,383.411 12.274,379.126 12.333 M362.458 12.790 C 362.940 12.823,363.727 12.823,364.208 12.790 C 364.690 12.756,364.296 12.728,363.333 12.728 C 362.371 12.728,361.977 12.756,362.458 12.790 M355.208 12.956 C 355.735 12.990,356.598 12.990,357.125 12.956 C 357.652 12.923,357.221 12.896,356.167 12.896 C 355.113 12.896,354.681 12.923,355.208 12.956 M345.211 13.164 C 343.540 13.224,342.123 13.322,342.062 13.382 C 342.002 13.443,343.032 13.449,344.351 13.396 C 345.670 13.344,348.325 13.245,350.250 13.176 L 353.750 13.051 351.000 13.054 C 349.488 13.055,346.882 13.104,345.211 13.164 M337.292 13.621 C 337.590 13.658,338.077 13.658,338.375 13.621 C 338.673 13.584,338.429 13.553,337.833 13.553 C 337.237 13.553,336.994 13.584,337.292 13.621 M332.875 13.788 C 333.219 13.824,333.781 13.824,334.125 13.788 C 334.469 13.752,334.188 13.723,333.500 13.723 C 332.813 13.723,332.531 13.752,332.875 13.788 M326.111 14.011 C 324.934 14.082,323.929 14.182,323.877 14.234 C 323.786 14.325,324.771 14.287,329.667 14.010 L 331.917 13.882 330.083 13.883 C 329.075 13.883,327.287 13.941,326.111 14.011 " stroke="none" fill="#c3e39c" fill-rule="evenodd"></path><path id="path1" d="M373.250 12.758 C 355.886 13.141,348.281 13.342,345.167 13.502 C 343.471 13.589,339.046 13.774,335.333 13.914 C 331.621 14.054,327.496 14.243,326.167 14.334 C 324.837 14.425,321.462 14.614,318.667 14.754 C 315.871 14.893,312.121 15.116,310.333 15.249 C 308.546 15.381,305.771 15.570,304.167 15.667 C 302.563 15.764,300.012 15.951,298.500 16.083 C 296.987 16.215,294.587 16.403,293.167 16.502 C 291.746 16.601,289.496 16.788,288.167 16.917 C 286.837 17.047,284.700 17.233,283.417 17.330 C 282.133 17.428,280.446 17.579,279.667 17.667 C 278.887 17.755,276.675 17.977,274.750 18.161 C 269.594 18.653,263.168 19.313,262.500 19.419 C 262.179 19.469,260.529 19.654,258.833 19.829 C 255.940 20.127,254.260 20.319,249.167 20.937 C 248.021 21.076,245.846 21.332,244.333 21.507 C 242.821 21.682,240.721 21.935,239.667 22.069 C 235.321 22.625,233.289 22.880,230.917 23.168 C 227.275 23.609,223.182 24.129,221.083 24.417 C 220.075 24.555,218.575 24.744,217.750 24.836 C 216.925 24.928,215.125 25.151,213.750 25.331 C 209.204 25.926,205.946 26.332,203.667 26.585 C 202.429 26.723,201.229 26.873,201.000 26.919 C 200.771 26.965,199.271 27.151,197.667 27.332 C 196.063 27.514,193.737 27.778,192.500 27.919 C 186.794 28.571,185.508 28.714,181.917 29.101 C 173.707 29.985,163.150 30.988,156.667 31.498 C 154.421 31.675,151.721 31.900,150.667 31.998 C 149.612 32.096,146.462 32.326,143.667 32.509 C 138.888 32.822,136.782 32.947,125.583 33.585 C 120.817 33.857,107.080 34.383,97.083 34.678 C 77.148 35.266,33.312 35.093,11.029 34.340 C 8.400 34.251,4.844 34.130,3.125 34.072 L 0.000 33.966 0.000 51.566 L 0.000 69.167 200.000 69.167 L 400.000 69.167 400.000 40.833 L 400.000 12.500 391.375 12.524 C 386.631 12.538,378.475 12.643,373.250 12.758 " stroke="none" fill="#146c34" fill-rule="evenodd"></path><path id="path2" d="M258.834 3.042 C 253.289 3.126,248.714 3.252,248.668 3.322 C 248.621 3.392,246.146 3.497,243.167 3.554 C 233.540 3.740,223.586 4.051,223.500 4.169 C 223.454 4.231,221.804 4.331,219.833 4.389 C 211.553 4.635,205.500 4.906,205.500 5.032 C 205.500 5.106,205.069 5.165,204.542 5.163 C 202.637 5.156,191.081 5.726,191.000 5.831 C 190.954 5.890,188.142 6.076,184.750 6.244 C 181.358 6.412,178.546 6.600,178.500 6.662 C 178.454 6.723,176.017 6.910,173.083 7.076 C 170.150 7.243,167.712 7.431,167.667 7.495 C 167.621 7.558,165.408 7.747,162.750 7.913 C 160.092 8.080,157.879 8.267,157.833 8.329 C 157.787 8.391,155.744 8.580,153.292 8.749 C 150.840 8.918,148.833 9.105,148.833 9.165 C 148.833 9.225,146.977 9.413,144.708 9.582 C 142.440 9.750,140.546 9.940,140.500 10.002 C 140.454 10.065,138.767 10.252,136.750 10.418 C 134.733 10.584,133.046 10.770,133.000 10.832 C 132.954 10.894,131.304 11.083,129.333 11.253 C 127.362 11.423,125.712 11.611,125.667 11.671 C 125.621 11.730,124.121 11.916,122.333 12.083 C 120.546 12.250,119.046 12.439,119.000 12.501 C 118.954 12.564,117.417 12.753,115.583 12.922 C 113.750 13.090,112.212 13.279,112.167 13.341 C 112.121 13.403,110.977 13.551,109.625 13.671 C 104.575 14.117,105.366 14.145,135.417 14.603 C 185.351 15.363,238.070 15.361,301.250 14.598 C 313.350 14.452,323.737 14.261,324.333 14.174 C 324.929 14.087,328.867 13.898,333.083 13.754 C 337.300 13.610,341.537 13.419,342.500 13.330 C 345.855 13.018,382.222 12.216,394.542 12.182 L 400.000 12.167 400.000 8.667 L 400.000 5.167 399.417 5.167 C 399.096 5.167,398.833 5.105,398.833 5.030 C 398.833 4.903,392.557 4.642,383.417 4.389 C 381.308 4.331,379.546 4.231,379.500 4.167 C 379.416 4.051,368.810 3.746,358.167 3.554 C 355.004 3.497,352.379 3.397,352.333 3.332 C 352.028 2.898,282.514 2.683,258.834 3.042 M0.333 9.667 C 0.333 9.766,0.972 9.833,1.917 9.833 C 2.861 9.833,3.500 9.766,3.500 9.667 C 3.500 9.567,2.861 9.500,1.917 9.500 C 0.972 9.500,0.333 9.567,0.333 9.667 M3.667 9.833 C 3.667 9.980,4.307 10.041,6.194 10.074 C 6.485 10.079,6.753 9.990,6.792 9.875 C 6.844 9.718,6.468 9.667,5.264 9.667 C 4.310 9.667,3.667 9.734,3.667 9.833 M7.000 9.992 C 7.000 10.392,9.995 10.439,10.126 10.042 C 10.177 9.885,9.801 9.833,8.597 9.833 C 7.694 9.833,7.000 9.902,7.000 9.992 M10.417 10.333 C 10.474 10.425,11.224 10.500,12.093 10.500 C 13.031 10.500,13.667 10.433,13.667 10.333 C 13.667 10.233,12.997 10.167,11.990 10.167 C 10.915 10.167,10.351 10.226,10.417 10.333 M13.833 10.500 C 13.833 10.600,14.500 10.667,15.500 10.667 C 16.500 10.667,17.167 10.600,17.167 10.500 C 17.167 10.400,16.500 10.333,15.500 10.333 C 14.500 10.333,13.833 10.400,13.833 10.500 M17.500 10.667 C 17.500 10.758,18.006 10.849,18.625 10.867 C 19.244 10.886,20.050 10.926,20.417 10.956 C 23.496 11.212,24.500 11.205,24.500 10.925 C 24.500 10.677,24.299 10.651,22.750 10.698 C 21.787 10.726,20.999 10.694,21.000 10.625 C 21.000 10.556,20.212 10.500,19.250 10.500 C 18.194 10.500,17.500 10.566,17.500 10.667 M24.917 11.167 C 24.975 11.261,25.780 11.333,26.760 11.333 C 27.809 11.333,28.500 11.267,28.500 11.167 C 28.500 11.066,27.774 11.000,26.657 11.000 C 25.470 11.000,24.850 11.059,24.917 11.167 M28.833 11.333 C 28.833 11.434,29.528 11.500,30.583 11.500 C 31.639 11.500,32.333 11.434,32.333 11.333 C 32.333 11.233,31.639 11.167,30.583 11.167 C 29.528 11.167,28.833 11.233,28.833 11.333 M32.750 11.500 C 32.656 11.652,33.355 11.711,35.611 11.742 C 35.958 11.746,36.252 11.660,36.292 11.542 C 36.379 11.281,32.911 11.240,32.750 11.500 M36.596 11.645 C 36.468 11.854,37.521 11.996,39.208 11.998 C 40.394 12.000,40.667 11.953,40.667 11.750 C 40.667 11.467,36.769 11.367,36.596 11.645 M41.167 12.000 C 41.503 12.217,45.167 12.217,45.167 12.000 C 45.167 11.897,44.349 11.834,43.042 11.836 C 41.608 11.838,40.998 11.891,41.167 12.000 M45.500 12.167 C 45.500 12.269,46.278 12.333,47.500 12.333 C 48.722 12.333,49.500 12.269,49.500 12.167 C 49.500 12.065,48.722 12.000,47.500 12.000 C 46.278 12.000,45.500 12.065,45.500 12.167 M50.000 12.308 C 50.000 12.465,54.122 12.714,54.353 12.571 C 54.833 12.274,54.273 12.167,52.250 12.167 C 51.012 12.167,50.000 12.230,50.000 12.308 M54.667 12.488 C 54.667 12.889,59.160 12.942,59.292 12.542 C 59.345 12.382,58.817 12.333,57.014 12.333 C 55.682 12.333,54.667 12.400,54.667 12.488 M59.750 12.833 C 59.811 12.932,60.807 13.000,62.177 13.000 C 63.614 13.000,64.500 12.936,64.500 12.833 C 64.500 12.730,63.580 12.667,62.073 12.667 C 60.498 12.667,59.683 12.725,59.750 12.833 M65.000 13.000 C 65.000 13.104,65.972 13.167,67.583 13.167 C 69.194 13.167,70.167 13.104,70.167 13.000 C 70.167 12.896,69.194 12.833,67.583 12.833 C 65.972 12.833,65.000 12.896,65.000 13.000 M70.599 13.141 C 70.502 13.297,75.772 13.557,76.014 13.408 C 76.098 13.356,76.167 13.243,76.167 13.157 C 76.167 12.960,70.721 12.945,70.599 13.141 M76.684 13.319 C 76.350 13.530,78.519 13.700,80.736 13.636 C 82.005 13.599,82.577 13.520,82.625 13.375 C 82.708 13.126,77.073 13.073,76.684 13.319 M83.417 13.667 C 83.479 13.768,84.696 13.833,86.510 13.833 C 88.392 13.833,89.500 13.772,89.500 13.667 C 89.500 13.562,88.358 13.500,86.407 13.500 C 84.387 13.500,83.349 13.558,83.417 13.667 M90.167 13.833 C 90.167 13.939,91.444 14.000,93.667 14.000 C 95.889 14.000,97.167 13.939,97.167 13.833 C 97.167 13.728,95.889 13.667,93.667 13.667 C 91.444 13.667,90.167 13.728,90.167 13.833 M97.933 13.974 C 97.835 14.132,105.096 14.397,105.343 14.244 C 105.877 13.914,105.176 13.833,101.760 13.833 C 99.703 13.833,97.981 13.897,97.933 13.974 " stroke="none" fill="#edf6e3" fill-rule="evenodd"></path><path id="path3" d="M398.708 12.453 C 398.960 12.491,399.373 12.491,399.625 12.453 C 399.877 12.415,399.671 12.383,399.167 12.383 C 398.662 12.383,398.456 12.415,398.708 12.453 M379.201 12.623 C 379.816 12.655,380.866 12.656,381.534 12.624 C 382.203 12.592,381.700 12.566,380.417 12.566 C 379.133 12.565,378.586 12.591,379.201 12.623 M369.875 12.791 C 370.769 12.821,372.231 12.821,373.125 12.791 C 374.019 12.761,373.287 12.736,371.500 12.736 C 369.712 12.736,368.981 12.761,369.875 12.791 M363.125 12.957 C 363.790 12.989,364.877 12.989,365.542 12.957 C 366.206 12.925,365.662 12.900,364.333 12.900 C 363.004 12.900,362.460 12.925,363.125 12.957 M356.958 13.122 C 357.348 13.157,357.985 13.157,358.375 13.122 C 358.765 13.087,358.446 13.058,357.667 13.058 C 356.887 13.058,356.569 13.087,356.958 13.122 M350.961 13.287 C 351.261 13.325,351.711 13.324,351.961 13.286 C 352.212 13.248,351.967 13.217,351.417 13.218 C 350.867 13.219,350.662 13.250,350.961 13.287 M345.461 13.454 C 345.761 13.491,346.211 13.490,346.461 13.452 C 346.712 13.414,346.467 13.384,345.917 13.385 C 345.367 13.386,345.162 13.417,345.461 13.454 M341.380 13.623 C 341.818 13.657,342.493 13.657,342.880 13.622 C 343.267 13.587,342.908 13.559,342.083 13.559 C 341.258 13.560,340.942 13.588,341.380 13.623 M337.625 13.789 C 338.015 13.824,338.652 13.824,339.042 13.789 C 339.431 13.754,339.112 13.725,338.333 13.725 C 337.554 13.725,337.235 13.754,337.625 13.789 M333.961 13.954 C 334.261 13.991,334.711 13.990,334.961 13.952 C 335.212 13.914,334.967 13.884,334.417 13.885 C 333.867 13.886,333.662 13.917,333.961 13.954 M330.127 14.118 C 330.334 14.158,330.634 14.156,330.794 14.115 C 330.953 14.073,330.783 14.040,330.417 14.042 C 330.050 14.044,329.920 14.078,330.127 14.118 M326.460 14.285 C 326.668 14.324,326.968 14.323,327.127 14.281 C 327.286 14.239,327.117 14.207,326.750 14.209 C 326.383 14.211,326.253 14.245,326.460 14.285 M323.288 14.454 C 323.584 14.490,324.109 14.491,324.455 14.455 C 324.800 14.419,324.558 14.389,323.917 14.388 C 323.275 14.387,322.992 14.417,323.288 14.454 M320.288 14.620 C 320.584 14.657,321.109 14.658,321.455 14.622 C 321.800 14.586,321.558 14.555,320.917 14.555 C 320.275 14.554,319.992 14.583,320.288 14.620 M317.375 14.786 C 317.627 14.824,318.040 14.824,318.292 14.786 C 318.544 14.748,318.337 14.717,317.833 14.717 C 317.329 14.717,317.123 14.748,317.375 14.786 M314.377 14.953 C 314.631 14.991,315.006 14.990,315.211 14.951 C 315.416 14.911,315.208 14.880,314.750 14.881 C 314.292 14.882,314.124 14.915,314.377 14.953 M311.458 15.118 C 311.665 15.157,312.002 15.157,312.208 15.118 C 312.415 15.078,312.246 15.045,311.833 15.045 C 311.421 15.045,311.252 15.078,311.458 15.118 M308.961 15.287 C 309.261 15.325,309.711 15.324,309.961 15.286 C 310.212 15.248,309.967 15.217,309.417 15.218 C 308.867 15.219,308.662 15.250,308.961 15.287 M306.455 15.454 C 306.750 15.490,307.275 15.491,307.621 15.455 C 307.967 15.419,307.725 15.389,307.083 15.388 C 306.442 15.387,306.159 15.417,306.455 15.454 M304.377 15.620 C 304.631 15.658,305.006 15.657,305.211 15.617 C 305.416 15.578,305.208 15.546,304.750 15.548 C 304.292 15.549,304.124 15.581,304.377 15.620 M302.042 15.782 C 302.202 15.823,302.465 15.823,302.625 15.782 C 302.785 15.740,302.654 15.705,302.333 15.705 C 302.012 15.705,301.881 15.740,302.042 15.782 M299.460 15.951 C 299.668 15.991,299.968 15.990,300.127 15.948 C 300.286 15.906,300.117 15.874,299.750 15.875 C 299.383 15.877,299.253 15.911,299.460 15.951 M297.208 16.119 C 297.460 16.158,297.873 16.158,298.125 16.119 C 298.377 16.081,298.171 16.050,297.667 16.050 C 297.162 16.050,296.956 16.081,297.208 16.119 M295.295 16.287 C 295.594 16.325,296.044 16.324,296.295 16.286 C 296.545 16.248,296.300 16.217,295.750 16.218 C 295.200 16.219,294.995 16.250,295.295 16.287 M293.292 16.451 C 293.498 16.491,293.835 16.491,294.042 16.451 C 294.248 16.411,294.079 16.379,293.667 16.379 C 293.254 16.379,293.085 16.411,293.292 16.451 M291.208 16.615 C 291.369 16.657,291.631 16.657,291.792 16.615 C 291.952 16.573,291.821 16.539,291.500 16.539 C 291.179 16.539,291.048 16.573,291.208 16.615 M289.042 16.782 C 289.202 16.823,289.465 16.823,289.625 16.782 C 289.785 16.740,289.654 16.705,289.333 16.705 C 289.012 16.705,288.881 16.740,289.042 16.782 M287.125 16.951 C 287.331 16.991,287.669 16.991,287.875 16.951 C 288.081 16.911,287.912 16.879,287.500 16.879 C 287.087 16.879,286.919 16.911,287.125 16.951 M285.208 17.119 C 285.460 17.158,285.873 17.158,286.125 17.119 C 286.377 17.081,286.171 17.050,285.667 17.050 C 285.162 17.050,284.956 17.081,285.208 17.119 M283.627 17.285 C 283.834 17.324,284.134 17.323,284.294 17.281 C 284.453 17.239,284.283 17.207,283.917 17.209 C 283.550 17.211,283.420 17.245,283.627 17.285 M277.960 17.785 C 278.168 17.824,278.468 17.823,278.627 17.781 C 278.786 17.739,278.617 17.707,278.250 17.709 C 277.883 17.711,277.753 17.745,277.960 17.785 M276.211 17.953 C 276.464 17.991,276.839 17.990,277.044 17.951 C 277.249 17.911,277.042 17.880,276.583 17.881 C 276.125 17.882,275.957 17.915,276.211 17.953 M274.708 18.115 C 274.869 18.157,275.131 18.157,275.292 18.115 C 275.452 18.073,275.321 18.039,275.000 18.039 C 274.679 18.039,274.548 18.073,274.708 18.115 M269.627 18.618 C 269.834 18.658,270.134 18.656,270.294 18.615 C 270.453 18.573,270.283 18.540,269.917 18.542 C 269.550 18.544,269.420 18.578,269.627 18.618 M267.958 18.784 C 268.165 18.824,268.502 18.824,268.708 18.784 C 268.915 18.745,268.746 18.712,268.333 18.712 C 267.921 18.712,267.752 18.745,267.958 18.784 M266.542 18.948 C 266.702 18.990,266.965 18.990,267.125 18.948 C 267.285 18.906,267.154 18.872,266.833 18.872 C 266.512 18.872,266.381 18.906,266.542 18.948 M261.627 19.451 C 261.834 19.491,262.134 19.490,262.294 19.448 C 262.453 19.406,262.283 19.374,261.917 19.375 C 261.550 19.377,261.420 19.411,261.627 19.451 M260.125 19.618 C 260.331 19.657,260.669 19.657,260.875 19.618 C 261.081 19.578,260.912 19.545,260.500 19.545 C 260.087 19.545,259.919 19.578,260.125 19.618 M258.875 19.782 C 259.035 19.823,259.298 19.823,259.458 19.782 C 259.619 19.740,259.487 19.705,259.167 19.705 C 258.846 19.705,258.715 19.740,258.875 19.782 M254.208 20.282 C 254.369 20.323,254.631 20.323,254.792 20.282 C 254.952 20.240,254.821 20.205,254.500 20.205 C 254.179 20.205,254.048 20.240,254.208 20.282 M252.792 20.451 C 252.998 20.491,253.335 20.491,253.542 20.451 C 253.748 20.411,253.579 20.379,253.167 20.379 C 252.754 20.379,252.585 20.411,252.792 20.451 M251.542 20.615 C 251.702 20.657,251.965 20.657,252.125 20.615 C 252.285 20.573,252.154 20.539,251.833 20.539 C 251.512 20.539,251.381 20.573,251.542 20.615 M247.042 21.115 C 247.202 21.157,247.465 21.157,247.625 21.115 C 247.785 21.073,247.654 21.039,247.333 21.039 C 247.012 21.039,246.881 21.073,247.042 21.115 M245.794 21.285 C 246.001 21.324,246.301 21.323,246.460 21.281 C 246.620 21.239,246.450 21.207,246.083 21.209 C 245.717 21.211,245.586 21.245,245.794 21.285 M240.208 21.948 C 240.369 21.990,240.631 21.990,240.792 21.948 C 240.952 21.906,240.821 21.872,240.500 21.872 C 240.179 21.872,240.048 21.906,240.208 21.948 M238.960 22.118 C 239.168 22.158,239.468 22.156,239.627 22.115 C 239.786 22.073,239.617 22.040,239.250 22.042 C 238.883 22.044,238.753 22.078,238.960 22.118 M232.583 22.833 C 232.016 22.935,231.991 22.955,232.417 22.967 C 232.692 22.974,233.217 22.919,233.583 22.843 C 234.456 22.662,233.584 22.654,232.583 22.833 M226.875 23.615 C 227.035 23.657,227.298 23.657,227.458 23.615 C 227.619 23.573,227.487 23.539,227.167 23.539 C 226.846 23.539,226.715 23.573,226.875 23.615 M225.627 23.785 C 225.834 23.824,226.134 23.823,226.294 23.781 C 226.453 23.739,226.283 23.707,225.917 23.709 C 225.550 23.711,225.420 23.745,225.627 23.785 M219.417 24.500 C 218.850 24.602,218.825 24.621,219.250 24.633 C 219.525 24.641,220.050 24.585,220.417 24.510 C 221.289 24.329,220.417 24.321,219.417 24.500 M213.708 25.282 C 213.869 25.323,214.131 25.323,214.292 25.282 C 214.452 25.240,214.321 25.205,214.000 25.205 C 213.679 25.205,213.548 25.240,213.708 25.282 M212.460 25.451 C 212.668 25.491,212.968 25.490,213.127 25.448 C 213.286 25.406,213.117 25.374,212.750 25.375 C 212.383 25.377,212.253 25.411,212.460 25.451 M207.042 26.115 C 207.202 26.157,207.465 26.157,207.625 26.115 C 207.785 26.073,207.654 26.039,207.333 26.039 C 207.012 26.039,206.881 26.073,207.042 26.115 M205.794 26.285 C 206.001 26.324,206.301 26.323,206.460 26.281 C 206.620 26.239,206.450 26.207,206.083 26.209 C 205.717 26.211,205.586 26.245,205.794 26.285 M200.208 26.948 C 200.369 26.990,200.631 26.990,200.792 26.948 C 200.952 26.906,200.821 26.872,200.500 26.872 C 200.179 26.872,200.048 26.906,200.208 26.948 M198.960 27.118 C 199.168 27.158,199.468 27.156,199.627 27.115 C 199.786 27.073,199.617 27.040,199.250 27.042 C 198.883 27.044,198.753 27.078,198.960 27.118 M193.294 27.785 C 193.501 27.824,193.801 27.823,193.960 27.781 C 194.120 27.739,193.950 27.707,193.583 27.709 C 193.217 27.711,193.086 27.745,193.294 27.785 M191.792 27.951 C 191.998 27.991,192.335 27.991,192.542 27.951 C 192.748 27.911,192.579 27.879,192.167 27.879 C 191.754 27.879,191.585 27.911,191.792 27.951 M189.000 28.172 C 188.653 28.248,188.956 28.264,189.750 28.211 C 190.483 28.162,191.115 28.094,191.153 28.061 C 191.276 27.953,189.603 28.040,189.000 28.172 M187.042 28.448 C 187.202 28.490,187.465 28.490,187.625 28.448 C 187.785 28.406,187.654 28.372,187.333 28.372 C 187.012 28.372,186.881 28.406,187.042 28.448 M183.417 28.759 C 182.408 28.880,181.440 28.983,181.264 28.989 C 181.088 28.995,180.986 29.042,181.037 29.093 C 181.135 29.191,186.367 28.688,186.486 28.569 C 186.604 28.452,185.333 28.530,183.417 28.759 M179.460 29.285 C 179.668 29.324,179.968 29.323,180.127 29.281 C 180.286 29.239,180.117 29.207,179.750 29.209 C 179.383 29.211,179.253 29.245,179.460 29.285 M176.083 29.517 C 175.350 29.594,174.600 29.691,174.417 29.734 C 173.883 29.857,177.306 29.645,178.151 29.502 L 178.917 29.373 178.167 29.375 C 177.754 29.377,176.817 29.440,176.083 29.517 M173.127 29.951 C 173.334 29.991,173.634 29.990,173.794 29.948 C 173.953 29.906,173.783 29.874,173.417 29.875 C 173.050 29.877,172.920 29.911,173.127 29.951 M171.294 30.118 C 171.501 30.158,171.801 30.156,171.960 30.115 C 172.120 30.073,171.950 30.040,171.583 30.042 C 171.217 30.044,171.086 30.078,171.294 30.118 M167.583 30.353 C 165.404 30.558,165.161 30.659,167.083 30.561 C 169.109 30.458,171.076 30.207,169.833 30.210 C 169.421 30.211,168.408 30.275,167.583 30.353 M164.460 30.785 C 164.668 30.824,164.968 30.823,165.127 30.781 C 165.286 30.739,165.117 30.707,164.750 30.709 C 164.383 30.711,164.253 30.745,164.460 30.785 M162.292 30.951 C 162.498 30.991,162.835 30.991,163.042 30.951 C 163.248 30.911,163.079 30.879,162.667 30.879 C 162.254 30.879,162.085 30.911,162.292 30.951 M159.583 31.096 C 159.400 31.125,158.141 31.237,156.786 31.346 C 155.431 31.455,154.356 31.578,154.398 31.620 C 154.488 31.711,161.378 31.178,161.483 31.072 C 161.561 30.994,160.131 31.013,159.583 31.096 M152.377 31.786 C 152.631 31.825,153.006 31.824,153.211 31.784 C 153.416 31.744,153.208 31.713,152.750 31.714 C 152.292 31.716,152.124 31.748,152.377 31.786 M147.750 32.018 C 146.742 32.094,145.692 32.190,145.417 32.231 C 144.590 32.353,149.331 32.144,150.500 32.006 L 151.583 31.879 150.583 31.880 C 150.033 31.880,148.758 31.942,147.750 32.018 M143.542 32.453 C 143.794 32.491,144.206 32.491,144.458 32.453 C 144.710 32.415,144.504 32.383,144.000 32.383 C 143.496 32.383,143.290 32.415,143.542 32.453 M140.795 32.621 C 141.094 32.658,141.544 32.657,141.795 32.619 C 142.045 32.581,141.800 32.551,141.250 32.552 C 140.700 32.553,140.495 32.584,140.795 32.621 M135.333 32.847 C 131.892 33.066,131.590 33.138,134.500 33.046 C 136.012 32.998,137.813 32.904,138.500 32.837 L 139.750 32.716 138.583 32.715 C 137.942 32.715,136.479 32.775,135.333 32.847 M130.125 33.287 C 130.423 33.324,130.910 33.324,131.208 33.287 C 131.506 33.250,131.262 33.220,130.667 33.220 C 130.071 33.220,129.827 33.250,130.125 33.287 M126.621 33.454 C 126.917 33.490,127.442 33.491,127.788 33.455 C 128.134 33.419,127.892 33.389,127.250 33.388 C 126.608 33.387,126.325 33.417,126.621 33.454 M119.417 33.683 C 114.851 33.898,114.485 33.970,118.417 33.879 C 120.433 33.833,122.833 33.740,123.750 33.673 L 125.417 33.551 123.833 33.551 C 122.962 33.550,120.975 33.610,119.417 33.683 M0.625 33.955 C 1.015 33.990,1.652 33.990,2.042 33.955 C 2.431 33.920,2.112 33.892,1.333 33.892 C 0.554 33.892,0.235 33.920,0.625 33.955 M3.881 34.123 C 4.412 34.157,5.237 34.156,5.714 34.123 C 6.192 34.089,5.758 34.062,4.750 34.062 C 3.742 34.063,3.351 34.090,3.881 34.123 M112.380 34.123 C 112.818 34.157,113.493 34.157,113.880 34.122 C 114.267 34.087,113.908 34.059,113.083 34.059 C 112.258 34.060,111.942 34.088,112.380 34.123 M9.548 34.290 C 10.078 34.323,10.903 34.323,11.381 34.289 C 11.859 34.256,11.425 34.229,10.417 34.229 C 9.408 34.229,9.017 34.257,9.548 34.290 M107.125 34.290 C 107.606 34.323,108.394 34.323,108.875 34.290 C 109.356 34.256,108.962 34.228,108.000 34.228 C 107.037 34.228,106.644 34.256,107.125 34.290 M16.583 34.508 C 18.142 34.573,23.092 34.667,27.583 34.717 L 35.750 34.807 26.917 34.587 C 22.058 34.466,17.108 34.372,15.917 34.378 L 13.750 34.390 16.583 34.508 M92.667 34.598 L 85.083 34.802 92.583 34.713 C 96.708 34.663,101.208 34.571,102.583 34.506 L 105.083 34.390 102.667 34.391 C 101.337 34.392,96.837 34.485,92.667 34.598 M38.458 34.958 C 39.673 34.986,41.660 34.986,42.875 34.958 C 44.090 34.929,43.096 34.906,40.667 34.906 C 38.237 34.906,37.244 34.929,38.458 34.958 M78.042 34.958 C 79.210 34.987,81.123 34.987,82.292 34.958 C 83.460 34.929,82.504 34.906,80.167 34.906 C 77.829 34.906,76.873 34.929,78.042 34.958 M59.797 35.123 C 60.282 35.157,61.032 35.156,61.464 35.122 C 61.896 35.088,61.500 35.060,60.583 35.061 C 59.667 35.061,59.313 35.089,59.797 35.123 " stroke="none" fill="#67a65c" fill-rule="evenodd"></path><path id="path4" d="M391.542 12.458 C 392.802 12.486,394.865 12.486,396.125 12.458 C 397.385 12.430,396.354 12.406,393.833 12.406 C 391.313 12.406,390.281 12.430,391.542 12.458 M375.548 12.623 C 376.078 12.657,376.903 12.656,377.381 12.623 C 377.859 12.589,377.425 12.562,376.417 12.562 C 375.408 12.563,375.017 12.590,375.548 12.623 M365.792 12.790 C 366.273 12.823,367.060 12.823,367.542 12.790 C 368.023 12.756,367.629 12.728,366.667 12.728 C 365.704 12.728,365.310 12.756,365.792 12.790 M358.958 12.957 C 359.531 12.989,360.469 12.989,361.042 12.957 C 361.615 12.924,361.146 12.898,360.000 12.898 C 358.854 12.898,358.385 12.924,358.958 12.957 M354.292 13.122 C 354.681 13.157,355.319 13.157,355.708 13.122 C 356.098 13.087,355.779 13.058,355.000 13.058 C 354.221 13.058,353.902 13.087,354.292 13.122 M349.128 13.287 C 349.428 13.325,349.878 13.324,350.128 13.286 C 350.378 13.248,350.133 13.217,349.583 13.218 C 349.033 13.219,348.828 13.250,349.128 13.287 M343.877 13.453 C 344.131 13.491,344.506 13.490,344.711 13.451 C 344.916 13.411,344.708 13.380,344.250 13.381 C 343.792 13.382,343.624 13.415,343.877 13.453 M339.295 13.621 C 339.594 13.658,340.044 13.657,340.295 13.619 C 340.545 13.581,340.300 13.551,339.750 13.552 C 339.200 13.553,338.995 13.584,339.295 13.621 M335.208 13.788 C 335.552 13.824,336.115 13.824,336.458 13.788 C 336.802 13.752,336.521 13.723,335.833 13.723 C 335.146 13.723,334.865 13.752,335.208 13.788 M332.208 13.953 C 332.460 13.991,332.873 13.991,333.125 13.953 C 333.377 13.915,333.171 13.883,332.667 13.883 C 332.162 13.883,331.956 13.915,332.208 13.953 M328.960 14.118 C 329.168 14.158,329.468 14.156,329.627 14.115 C 329.786 14.073,329.617 14.040,329.250 14.042 C 328.883 14.044,328.753 14.078,328.960 14.118 M325.294 14.285 C 325.501 14.324,325.801 14.323,325.960 14.281 C 326.120 14.239,325.950 14.207,325.583 14.209 C 325.217 14.211,325.086 14.245,325.294 14.285 M321.542 14.453 C 321.794 14.491,322.206 14.491,322.458 14.453 C 322.710 14.415,322.504 14.383,322.000 14.383 C 321.496 14.383,321.290 14.415,321.542 14.453 M318.292 14.621 C 318.590 14.658,319.077 14.658,319.375 14.621 C 319.673 14.584,319.429 14.553,318.833 14.553 C 318.237 14.553,317.994 14.584,318.292 14.621 M315.208 14.788 C 315.552 14.824,316.115 14.824,316.458 14.788 C 316.802 14.752,316.521 14.723,315.833 14.723 C 315.146 14.723,314.865 14.752,315.208 14.788 M310.375 15.115 C 310.535 15.157,310.798 15.157,310.958 15.115 C 311.119 15.073,310.987 15.039,310.667 15.039 C 310.346 15.039,310.215 15.073,310.375 15.115 M307.627 15.285 C 307.834 15.324,308.134 15.323,308.294 15.281 C 308.453 15.239,308.283 15.207,307.917 15.209 C 307.550 15.211,307.420 15.245,307.627 15.285 M304.877 15.453 C 305.131 15.491,305.506 15.490,305.711 15.451 C 305.916 15.411,305.708 15.380,305.250 15.381 C 304.792 15.382,304.624 15.415,304.877 15.453 M302.628 15.621 C 302.928 15.658,303.378 15.657,303.628 15.619 C 303.878 15.581,303.633 15.551,303.083 15.552 C 302.533 15.553,302.328 15.584,302.628 15.621 M296.042 16.115 C 296.202 16.157,296.465 16.157,296.625 16.115 C 296.785 16.073,296.654 16.039,296.333 16.039 C 296.012 16.039,295.881 16.073,296.042 16.115 M293.792 16.284 C 293.998 16.324,294.335 16.324,294.542 16.284 C 294.748 16.245,294.579 16.212,294.167 16.212 C 293.754 16.212,293.585 16.245,293.792 16.284 M291.877 16.453 C 292.131 16.491,292.506 16.490,292.711 16.451 C 292.916 16.411,292.708 16.380,292.250 16.381 C 291.792 16.382,291.624 16.415,291.877 16.453 M286.042 16.948 C 286.202 16.990,286.465 16.990,286.625 16.948 C 286.785 16.906,286.654 16.872,286.333 16.872 C 286.012 16.872,285.881 16.906,286.042 16.948 M283.960 17.118 C 284.168 17.158,284.468 17.156,284.627 17.115 C 284.786 17.073,284.617 17.040,284.250 17.042 C 283.883 17.044,283.753 17.078,283.960 17.118 M282.211 17.286 C 282.464 17.325,282.839 17.324,283.044 17.284 C 283.249 17.244,283.042 17.213,282.583 17.214 C 282.125 17.216,281.957 17.248,282.211 17.286 M275.042 17.948 C 275.202 17.990,275.465 17.990,275.625 17.948 C 275.785 17.906,275.654 17.872,275.333 17.872 C 275.012 17.872,274.881 17.906,275.042 17.948 M273.458 18.118 C 273.665 18.157,274.002 18.157,274.208 18.118 C 274.415 18.078,274.246 18.045,273.833 18.045 C 273.421 18.045,273.252 18.078,273.458 18.118 M266.875 18.782 C 267.035 18.823,267.298 18.823,267.458 18.782 C 267.619 18.740,267.487 18.705,267.167 18.705 C 266.846 18.705,266.715 18.740,266.875 18.782 M265.292 18.951 C 265.498 18.991,265.835 18.991,266.042 18.951 C 266.248 18.911,266.079 18.879,265.667 18.879 C 265.254 18.879,265.085 18.911,265.292 18.951 M259.042 19.615 C 259.202 19.657,259.465 19.657,259.625 19.615 C 259.785 19.573,259.654 19.539,259.333 19.539 C 259.012 19.539,258.881 19.573,259.042 19.615 M257.794 19.785 C 258.001 19.824,258.301 19.823,258.460 19.781 C 258.620 19.739,258.450 19.707,258.083 19.709 C 257.717 19.711,257.586 19.745,257.794 19.785 M52.167 20.428 C 50.837 20.557,49.075 20.737,48.250 20.828 C 47.425 20.919,45.100 21.142,43.083 21.323 C 41.067 21.504,38.929 21.733,38.333 21.831 C 37.737 21.930,35.525 22.164,33.417 22.351 C 31.308 22.539,27.746 22.871,25.500 23.089 C 23.254 23.307,19.654 23.635,17.500 23.817 C 15.346 23.999,13.096 24.226,12.500 24.321 C 11.904 24.416,9.842 24.607,7.917 24.746 C 5.992 24.884,3.929 25.071,3.333 25.162 C 2.737 25.253,1.744 25.373,1.125 25.427 L 0.000 25.527 -0.000 29.655 L -0.000 33.783 2.125 33.893 C 19.021 34.761,68.174 35.223,88.750 34.706 C 106.467 34.260,110.076 34.151,114.833 33.918 C 117.537 33.786,121.737 33.598,124.167 33.501 C 126.596 33.404,129.558 33.251,130.750 33.161 C 131.942 33.071,135.577 32.845,138.830 32.659 C 142.082 32.473,144.894 32.288,145.080 32.248 C 145.265 32.208,147.254 32.059,149.500 31.916 C 151.746 31.774,154.258 31.584,155.083 31.495 C 155.908 31.405,158.533 31.181,160.917 30.996 C 163.300 30.811,165.362 30.628,165.500 30.589 C 165.637 30.550,167.212 30.398,169.000 30.252 C 170.787 30.107,172.821 29.913,173.520 29.822 C 174.218 29.731,176.281 29.510,178.103 29.332 C 182.803 28.871,189.220 28.175,189.417 28.106 C 189.508 28.073,188.308 27.996,186.750 27.933 C 185.192 27.871,182.792 27.747,181.417 27.658 C 180.042 27.569,175.368 27.351,171.030 27.174 C 166.692 26.997,162.117 26.773,160.863 26.677 C 159.609 26.580,155.584 26.382,151.919 26.236 C 148.253 26.090,145.205 25.941,145.146 25.904 C 145.086 25.867,141.710 25.686,137.644 25.501 C 133.577 25.317,129.462 25.092,128.500 25.001 C 127.537 24.909,124.166 24.717,121.007 24.573 C 117.849 24.428,115.212 24.278,115.147 24.238 C 115.082 24.198,112.237 24.014,108.825 23.828 C 105.413 23.643,102.566 23.458,102.499 23.416 C 102.431 23.374,99.760 23.188,96.563 23.002 C 93.366 22.817,90.150 22.591,89.417 22.501 C 88.683 22.411,85.949 22.219,83.341 22.074 C 80.733 21.930,78.545 21.778,78.479 21.737 C 78.412 21.696,75.784 21.513,72.637 21.331 C 69.491 21.148,66.317 20.927,65.583 20.839 C 64.850 20.751,62.600 20.600,60.583 20.504 C 58.567 20.408,56.392 20.299,55.750 20.261 C 55.108 20.224,53.496 20.299,52.167 20.428 M250.460 20.618 C 250.668 20.658,250.968 20.656,251.127 20.615 C 251.286 20.573,251.117 20.540,250.750 20.542 C 250.383 20.544,250.253 20.578,250.460 20.618 M243.460 21.451 C 243.668 21.491,243.968 21.490,244.127 21.448 C 244.286 21.406,244.117 21.374,243.750 21.375 C 243.383 21.377,243.253 21.411,243.460 21.451 M236.708 22.282 C 236.869 22.323,237.131 22.323,237.292 22.282 C 237.452 22.240,237.321 22.205,237.000 22.205 C 236.679 22.205,236.548 22.240,236.708 22.282 M230.042 23.115 C 230.202 23.157,230.465 23.157,230.625 23.115 C 230.785 23.073,230.654 23.039,230.333 23.039 C 230.012 23.039,229.881 23.073,230.042 23.115 M223.460 23.951 C 223.668 23.991,223.968 23.990,224.127 23.948 C 224.286 23.906,224.117 23.874,223.750 23.875 C 223.383 23.877,223.253 23.911,223.460 23.951 M216.875 24.782 C 217.035 24.823,217.298 24.823,217.458 24.782 C 217.619 24.740,217.487 24.705,217.167 24.705 C 216.846 24.705,216.715 24.740,216.875 24.782 M210.294 25.618 C 210.501 25.658,210.801 25.656,210.960 25.615 C 211.120 25.573,210.950 25.540,210.583 25.542 C 210.217 25.544,210.086 25.578,210.294 25.618 M203.542 26.448 C 203.702 26.490,203.965 26.490,204.125 26.448 C 204.285 26.406,204.154 26.372,203.833 26.372 C 203.512 26.372,203.381 26.406,203.542 26.448 M196.627 27.285 C 196.834 27.324,197.134 27.323,197.294 27.281 C 197.453 27.239,197.283 27.207,196.917 27.209 C 196.550 27.211,196.420 27.245,196.627 27.285 M190.627 27.951 C 190.834 27.991,191.134 27.990,191.294 27.948 C 191.453 27.906,191.283 27.874,190.917 27.875 C 190.550 27.877,190.420 27.911,190.627 27.951 " stroke="none" fill="#84b484" fill-rule="evenodd"></path></g></svg>