<svg width="1440" height="192" viewBox="0 0 1440 192" fill="none" xmlns="http://www.w3.org/2000/svg">
<g clip-path="url(#clip0_455_21)">
<path d="M0 65.4234V0C0 0 195.942 25.4335 235.308 27.2866C235.308 27.2866 497.774 49.2019 522.297 47.9396L818.079 55.9429L1056.45 56.3995H1232.82V192H0V65.4234Z" fill="#D7EAC9"/>
<path d="M255.878 94.8048C420.494 78.261 585.513 64.2148 749.86 45.227C947.953 22.3449 1147.66 26.7226 1346.64 29.3009C1374.87 29.3009 1403.11 30.3751 1431.29 31.6374V186.602L255.878 192V94.8048Z" fill="#DDEDD2"/>
<path opacity="0.5" d="M220.626 91.7969C241.331 89.89 262.036 87.9832 282.714 86.0764C326.839 82.021 370.964 77.9387 415.089 73.8833C491.535 67.7868 567.74 57.0978 644.24 52.2367C665.697 50.867 687.262 50.4372 708.72 51.7532L996.677 54.0361L1185.41 50.7327H1309.72V189.153H220.626V91.77V91.7969Z" fill="#A5D388"/>
<path opacity="0.5" d="M890.115 87.4193C780.192 73.1583 152.462 52.6127 0 65.4235V69.7206V192H890.115V87.4193Z" fill="#99CC67"/>
<path d="M0 69.7205V192H1440V48.6647C1439.87 45.2002 1206.31 55.3521 1200.5 55.7281C1135.32 59.7835 1069.06 66.6588 1003.75 74.7696C900.709 87.5804 796.406 104.339 691.484 105.924C581.372 107.589 458.865 104.849 447.222 103.641C447.222 103.641 100.324 90.8838 0 69.7205Z" fill="#1A6B37"/>
</g>
<defs>
<clipPath id="clip0_455_21">
<rect width="1440" height="192" fill="white"/>
</clipPath>
</defs>
</svg>
