<?xml version="1.0" encoding="UTF-8"?>
<svg id="Layer_2" data-name="Layer 2" xmlns="http://www.w3.org/2000/svg" viewBox="0 0 80.42 73.99">
  <defs>
    <style>
      .cls-1 {
        fill: #04703c;
      }

      .cls-2 {
        fill: #f0efef;
      }

      .cls-3 {
        fill: none;
        stroke: #04703c;
        stroke-miterlimit: 10;
        stroke-width: 1.4px;
      }

      .cls-4 {
        fill: #010101;
        font-family: Poppins-Medium, Poppins;
        font-size: 8.58px;
        font-weight: 500;
      }
    </style>
  </defs>
  <g id="Layer_1-2" data-name="Layer 1">
    <g>
      <text class="cls-4" transform="translate(0 69)"><tspan x="0" y="0">WEB DEVELOPMENT</tspan></text>
      <g>
        <rect class="cls-1" x="10.36" y="3.22" width="60.17" height="36.84" rx="2.7" ry="2.7"/>
        <g>
          <rect class="cls-3" x="7.23" y=".7" width="65.96" height="43.97" rx="1.99" ry="1.99"/>
          <rect class="cls-3" x="10.07" y="3.54" width="60.28" height="36.3" rx="1.99" ry="1.99"/>
          <rect class="cls-3" x="34.26" y="44.67" width="11.91" height="3.97" rx="1.99" ry="1.99"/>
          <rect class="cls-3" x="31.69" y="48.64" width="17.05" height="4.19" rx="1.99" ry="1.99"/>
        </g>
        <g>
          <path class="cls-2" d="m26.1,16.51c.15-.09.33-.14.54-.14.15,0,.29.03.43.09.13.06.25.14.34.23s.18.21.23.34.09.27.09.43c0,.4-.18.71-.54.95l-3.49,2.09c-1.29.77-1.29,2.64,0,3.41l3.49,2.1c.36.24.54.55.54.94,0,.31-.11.57-.32.78-.21.2-.47.31-.78.31-.21,0-.39-.05-.54-.14l-7.87-4.72c-.38-.24-.57-.56-.57-.97,0-.38.19-.7.57-.96l7.87-4.73Z"/>
          <path class="cls-2" d="m44.04,14.5l-6.42,16.04c-.26.43-.59.65-1,.65-.31,0-.57-.1-.78-.31-.2-.21-.31-.47-.31-.78,0-.14.03-.29.09-.45l6.42-16.04c.06-.12.14-.23.24-.33.21-.21.46-.31.76-.31s.55.11.76.32c.21.21.32.47.32.76,0,.17-.03.32-.09.46Z"/>
          <path class="cls-2" d="m61.29,21.24c.38.26.57.58.57.96,0,.41-.19.73-.57.97l-7.87,4.72c-.15.09-.33.14-.54.14-.31,0-.56-.1-.78-.31-.21-.2-.32-.46-.32-.78,0-.39.18-.7.54-.94l3.49-2.1c1.29-.77,1.28-2.64,0-3.41l-3.49-2.09c-.36-.24-.54-.55-.54-.95,0-.15.03-.29.09-.43s.14-.25.23-.34c.1-.1.21-.18.34-.23.13-.06.27-.09.43-.09.21,0,.39.05.54.14l7.87,4.73Z"/>
        </g>
      </g>
    </g>
  </g>
</svg>