<?xml version="1.0" encoding="UTF-8"?>
<svg id="Layer_2" data-name="Layer 2" xmlns="http://www.w3.org/2000/svg" viewBox="0 0 67.27 65.5">
  <defs>
    <style>
      .cls-1 {
        fill: #8abf56;
        fill-rule: evenodd;
      }
    </style>
  </defs>
  <g id="Layer_1-2" data-name="Layer 1">
    <path class="cls-1" d="m6.05,25.84h58.15c1.71,0,3.07,1.39,3.07,3.07v6.99H2.98v-6.99c0-1.68,1.36-3.07,3.07-3.07h0ZM1.67,15.78L60.31.07c1.19-.31,2.44.4,2.75,1.59l1.31,4.89c.31,1.19-.4,2.44-1.59,2.76L4.15,25.02c-1.19.34-2.44-.4-2.76-1.59L.08,18.54c-.34-1.19.4-2.42,1.59-2.76h0Zm6.25.43l2.24-.6c.43-.11.82-.03.88.17l1.22,4.55c.06.23-.26.48-.68.6l-2.24.62c-.43.11-.82.03-.88-.2l-1.22-4.55c-.06-.2.23-.48.68-.6h0ZM52.84,4.16l2.27-.6c.43-.11.82-.03.88.17l1.22,4.54c.06.23-.26.48-.68.62l-2.24.6c-.43.11-.82.03-.88-.2l-1.22-4.54c-.06-.2.23-.48.65-.6h0Zm-8.98,2.41l2.24-.6c.46-.11.85-.06.91.17l1.19,4.55c.06.23-.23.48-.65.6l-2.27.62c-.43.11-.82.03-.88-.2l-1.22-4.55c-.06-.23.26-.48.68-.6h0Zm-8.98,2.41l2.24-.63c.43-.11.82-.03.88.2l1.22,4.54c.06.23-.26.48-.68.6l-2.24.6c-.43.11-.82.06-.88-.17l-1.22-4.54c-.06-.23.26-.48.68-.6h0Zm-9.01,2.39l2.27-.6c.43-.11.82-.03.88.2l1.22,4.55c.06.2-.26.48-.68.6l-2.25.6c-.45.11-.85.03-.91-.17l-1.19-4.55c-.06-.23.23-.48.65-.62h0Zm-8.98,2.41l2.24-.6c.43-.11.82-.03.88.17l1.22,4.57c.06.2-.23.48-.65.6l-2.27.6c-.43.11-.82.03-.88-.17l-1.22-4.57c-.06-.2.26-.48.68-.6h0Zm50.37,24.57v24.06c0,1.68-1.36,3.07-3.07,3.07H6.05c-1.7,0-3.07-1.39-3.07-3.07v-24.06h64.29ZM10.71,28.08h2.33c.43,0,.8.17.8.4v4.72c0,.23-.37.4-.8.4h-2.33c-.45,0-.82-.17-.82-.4v-4.72c0-.23.37-.4.82-.4h0Zm46.5,0h2.33c.45,0,.82.17.82.4v4.72c0,.23-.37.4-.82.4h-2.33c-.43,0-.8-.17-.8-.4v-4.72c0-.23.37-.4.8-.4h0Zm-9.29,0h2.33c.45,0,.8.17.8.4v4.72c0,.23-.34.4-.8.4h-2.33c-.45,0-.82-.17-.82-.4v-4.72c0-.23.37-.4.82-.4h0Zm-9.32,0h2.33c.46,0,.82.17.82.4v4.72c0,.23-.37.4-.82.4h-2.33c-.43,0-.8-.17-.8-.4v-4.72c0-.23.37-.4.8-.4h0Zm-9.29,0h2.33c.43,0,.8.17.8.4v4.72c0,.23-.37.4-.8.4h-2.33c-.45,0-.82-.17-.82-.4v-4.72c0-.23.37-.4.82-.4h0Zm-9.32,0h2.33c.45,0,.82.17.82.4v4.72c0,.23-.37.4-.82.4h-2.33c-.46,0-.8-.17-.8-.4v-4.72c0-.23.34-.4.8-.4h0Z"/>
  </g>
</svg>