<?xml version="1.0" encoding="UTF-8"?>
<svg id="Layer_2" data-name="Layer 2" xmlns="http://www.w3.org/2000/svg" viewBox="0 0 60.52 62.4">
  <defs>
    <style>
      .cls-1 {
        fill: none;
      }

      .cls-1, .cls-2, .cls-3 {
        stroke: #8abf56;
        stroke-miterlimit: 10;
      }

      .cls-1, .cls-3 {
        stroke-width: 1.45px;
      }

      .cls-2 {
        stroke-width: 1.47px;
      }

      .cls-2, .cls-3 {
        fill: #8abf56;
      }
    </style>
  </defs>
  <g id="Layer_1-2" data-name="Layer 1">
    <g>
      <g>
        <path class="cls-1" d="m2.45,30.26C2.45,14.9,14.9,2.45,30.26,2.45s27.81,12.45,27.81,27.81"/>
        <line class="cls-1" x1="58.07" y1="2.45" x2="2.45" y2="2.45"/>
        <path class="cls-3" d="m4.17,2.15c0,.79-.64,1.43-1.43,1.43s-1.43-.64-1.43-1.43.64-1.43,1.43-1.43,1.43.64,1.43,1.43Z"/>
        <path class="cls-3" d="m59.5,2.15c0,.79-.64,1.43-1.43,1.43s-1.43-.64-1.43-1.43.64-1.43,1.43-1.43,1.43.64,1.43,1.43Z"/>
        <rect class="cls-1" x="28.53" y=".73" width="3.45" height="3.45"/>
        <rect class="cls-3" x=".73" y="28.54" width="3.45" height="3.45"/>
        <rect class="cls-3" x="56.35" y="28.54" width="3.45" height="3.45"/>
      </g>
      <path class="cls-2" d="m26.15,52.29c-.22-4.45-1.25-11.95-12.89-15.96,11.55-4.15,17.08-19.89,17-27.3h0"/>
      <path class="cls-3" d="m34.8,51.86c.17-4.39,1.11-11.8,12.57-15.64-11.46-4.23-17.11-19.86-17.11-27.18h0"/>
      <path class="cls-3" d="m30.55,48.95h-.57c-2.3,0-4.34,1.86-4.56,4.15l-.8,8.58h11.3l-.8-8.58c-.21-2.29-2.26-4.15-4.56-4.15Z"/>
      <line class="cls-1" x1="30.26" y1="9.04" x2="30.26" y2="37.79"/>
      <path class="cls-3" d="m31.69,37.79c0,.79-.64,1.43-1.43,1.43s-1.43-.64-1.43-1.43.64-1.43,1.43-1.43,1.43.64,1.43,1.43Z"/>
    </g>
  </g>
</svg>