<?xml version="1.0" encoding="UTF-8"?>
<svg id="Layer_2" data-name="Layer 2" xmlns="http://www.w3.org/2000/svg" viewBox="0 0 69.56 61.08">
  <defs>
    <style>
      .cls-1 {
        fill: #353535;
      }
    </style>
  </defs>
  <g id="Layer_1-2" data-name="Layer 1">
    <g id="_42_Control_Development_Web_Website" data-name="42, Control, Development, Web, Website">
      <g>
        <path class="cls-1" d="m16.23,12.9c.75,0,1.35.61,1.35,1.35s-.61,1.35-1.35,1.35-1.35-.61-1.35-1.35.61-1.35,1.35-1.35Z"/>
        <path class="cls-1" d="m12.38,12.9c.75,0,1.35.61,1.35,1.35s-.61,1.35-1.35,1.35-1.35-.61-1.35-1.35.61-1.35,1.35-1.35Z"/>
        <path class="cls-1" d="m8.43,12.9c.75,0,1.35.61,1.35,1.35s-.61,1.35-1.35,1.35-1.35-.61-1.35-1.35.61-1.35,1.35-1.35Z"/>
        <path class="cls-1" d="m10.41,7.7c1.46,0,2.6-1.14,2.6-2.6s-1.14-2.6-2.6-2.6-2.6,1.14-2.6,2.6,1.14,2.6,2.6,2.6Zm0-3.85c.73,0,1.35.62,1.35,1.35s-.62,1.35-1.35,1.35-1.35-.62-1.35-1.35c0-.83.62-1.35,1.35-1.35Z"/>
        <path class="cls-1" d="m57.46,7.08c1.98,0,3.54-1.56,3.54-3.54s-1.56-3.54-3.54-3.54-3.54,1.56-3.54,3.54,1.56,3.54,3.54,3.54Zm0-5.83c1.25,0,2.29,1.04,2.29,2.29s-1.04,2.29-2.29,2.29-2.29-1.04-2.29-2.29,1.04-2.29,2.29-2.29Z"/>
        <path class="cls-1" d="m.94,9.05c.52,0,.94.42.94.94s-.42.94-.94.94-.94-.42-.94-.94.42-.94.94-.94Z"/>
        <path class="cls-1" d="m19.15,2.6c.52,0,.94.42.94.94s-.42.94-.94.94-.94-.42-.94-.94.42-.94.94-.94Z"/>
        <path class="cls-1" d="m48.31,3.85c.52,0,.94.42.94.94s-.42.94-.94.94-.94-.42-.94-.94.42-.94.94-.94Z"/>
        <path class="cls-1" d="m25.7,6.45c.52,0,.94.42.94.94s-.42.94-.94.94-.94-.42-.94-.94.42-.94.94-.94Z"/>
        <path class="cls-1" d="m56.92,9.05c.52,0,.94.42.94.94s-.42.94-.94.94-.94-.42-.94-.94.42-.94.94-.94Z"/>
        <path class="cls-1" d="m64.2,9.68H7.96c-2.95,0-5.36,1.87-5.36,4.16v43.08c0,2.29,2.41,4.16,5.36,4.16h56.24c2.95,0,5.36-1.87,5.36-4.16V13.84c0-2.29-2.41-4.16-5.36-4.16Zm-33.21,5.2h36.82v2.6H30.99v-2.6Zm36.82-1.25H30.99v-2.6h33.21c1.87,0,3.48,1.14,3.62,2.6ZM7.96,11.03h21.42v6.45H4.21v-3.64c0-1.56,1.74-2.81,3.75-2.81Zm56.24,48.7H7.96c-2.01,0-3.75-1.25-3.75-2.91V18.83h63.61v38.09c0,1.56-1.61,2.81-3.62,2.81Z"/>
        <path class="cls-1" d="m62.65,22.68H8.64c-.42,0-.83.31-.83.63v31.84c0,.31.42.62.83.62h54.01c.42,0,.83-.31.83-.62v-31.84c0-.31-.42-.63-.83-.63Zm-.97,31.84H9.47v-30.49h52.2v30.49Z"/>
        <path class="cls-1" d="m26.95,50.68h18.21c2.71,0,4.89-2.18,4.89-4.89s-2.19-4.89-4.89-4.89h-18.21c-2.71,0-4.89,2.18-4.89,4.89s2.19,4.89,4.89,4.89Zm18.21-8.43c1.98,0,3.54,1.56,3.54,3.54s-1.56,3.54-3.54,3.54h-14.99c2.08-1.98,2.08-5.2,0-7.18h14.99v.1Zm-18.21,0c1.98,0,3.54,1.56,3.54,3.54s-1.56,3.54-3.54,3.54-3.54-1.56-3.54-3.54c-.1-1.98,1.56-3.54,3.54-3.54Z"/>
        <path class="cls-1" d="m26.95,38.29h18.21c2.71,0,4.89-2.18,4.89-4.89s-2.19-4.89-4.89-4.89h-18.21c-2.71,0-4.89,2.18-4.89,4.89s2.19,4.89,4.89,4.89Zm21.75-4.89c0,1.98-1.56,3.54-3.54,3.54s-3.54-1.56-3.54-3.54,1.56-3.54,3.54-3.54,3.54,1.56,3.54,3.54Zm-21.75-3.54h14.88c-2.08,1.98-2.08,5.2,0,7.18h-14.88c-1.98,0-3.54-1.56-3.54-3.54s1.56-3.64,3.54-3.64Z"/>
      </g>
    </g>
  </g>
</svg>