<?xml version="1.0" encoding="UTF-8"?>
<svg id="Layer_2" data-name="Layer 2" xmlns="http://www.w3.org/2000/svg" viewBox="0 0 72.13 54.07">
  <defs>
    <style>
      .cls-1, .cls-2 {
        fill: #353535;
      }

      .cls-2 {
        stroke-width: .5px;
      }

      .cls-2, .cls-3 {
        stroke: #353535;
        stroke-miterlimit: 10;
      }

      .cls-3 {
        fill: none;
        stroke-width: 2px;
      }
    </style>
  </defs>
  <g id="Layer_1-2" data-name="Layer 1">
    <g>
      <path class="cls-1" d="m13.99,1.03c-.33-.65-.83-1.03-1.35-1.03h-3.75c-.59,0-1.14.48-1.47,1.27l-.63,1.54h8.11l-.92-1.79Z"/>
      <g>
        <path class="cls-3" d="m40.86,21.46c-.57,1.28-.99,2.68-1.22,4.16-.58,3.68.08,7.29,1.63,10.28l9.44-12.49-9.85-1.96Z"/>
        <path class="cls-3" d="m52.21,13.09c-4.64.27-8.81,3.24-11.05,7.74l14.41,2.87-3.36-10.61Z"/>
        <path class="cls-3" d="m64.96,35.07c.57-1.28.99-2.68,1.22-4.16.58-3.68-.08-7.28-1.62-10.28l-9.44,12.48,9.85,1.96Z"/>
        <path class="cls-3" d="m64.23,20.02c-1.96-3.42-5.13-5.95-8.98-6.72-.81-.16-1.62-.24-2.42-.23l4.92,15.51,6.48-8.56Z"/>
        <path class="cls-3" d="m41.6,36.52c1.96,3.42,5.13,5.95,8.97,6.71.86.17,1.72.25,2.57.23l-5.07-15.51-6.48,8.57Z"/>
        <path class="cls-3" d="m53.77,43.43c4.57-.33,8.68-3.28,10.9-7.73l-14.36-2.86,3.46,10.59Z"/>
      </g>
      <path class="cls-2" d="m66.63,53.82h-27.05c-2.89,0-5.25-2.65-5.25-5.91v-3.85c0-.46.33-.83.73-.83s.73.37.73.83v3.85c0,2.35,1.7,4.26,3.78,4.26h27.05c2.08,0,3.78-1.91,3.78-4.26V10.27c0-2.35-1.7-4.26-3.78-4.26h-25.18c-1.68,0-3.18,1.27-3.64,3.09l-9.81,38.8c-.88,3.49-3.74,5.92-6.96,5.92H7.49c-3.99,0-7.24-3.66-7.24-8.16V12.96C.25,8.47,3.5,4.81,7.49,4.81h23.62c.4,0,.73.37.73.83s-.33.83-.73.83H7.49c-3.18,0-5.77,2.92-5.77,6.5v32.7c0,3.59,2.59,6.5,5.77,6.5h13.56c2.56,0,4.85-1.94,5.55-4.72l9.81-38.8c.64-2.53,2.71-4.29,5.05-4.29h25.18c2.89,0,5.25,2.65,5.25,5.91v37.63c0,3.26-2.35,5.91-5.25,5.91Z"/>
      <path class="cls-1" d="m66.48,13.26c0,1.05-.75,1.89-1.68,1.89s-1.68-.85-1.68-1.89.75-1.89,1.68-1.89,1.68.85,1.68,1.89Z"/>
    </g>
  </g>
</svg>