<?xml version="1.0" encoding="UTF-8"?>
<svg id="Layer_2" data-name="Layer 2" xmlns="http://www.w3.org/2000/svg" viewBox="0 0 66.81 54.15">
  <defs>
    <style>
      .cls-1 {
        fill: #353535;
      }

      .cls-2 {
        fill: none;
        stroke: #353535;
        stroke-miterlimit: 10;
        stroke-width: 2px;
      }
    </style>
  </defs>
  <g id="Layer_1-2" data-name="Layer 1">
    <g>
      <rect class="cls-2" x="15.31" y="24.44" width="45.41" height="28.71" rx="4.2" ry="4.2"/>
      <path class="cls-1" d="m13.05,46.66l-11.32,3.59c-.85.27-1.73-.37-1.73-1.26v-20.97c0-.9.87-1.54,1.73-1.26l11.43,3.65c.55.18.93.69.92,1.27l-.11,13.72c0,.57-.38,1.08-.92,1.25Z"/>
      <path class="cls-1" d="m62.7,25.66l2.42-.77c.84-.27,1.69.36,1.69,1.23v5.26c0,.88-.85,1.5-1.69,1.23l-2.45-.78c-.54-.17-.91-.68-.9-1.24l.03-3.71c0-.56.37-1.05.9-1.22Z"/>
      <path class="cls-1" d="m27.66,22.08c-6.09,0-11.04-4.95-11.04-11.04S21.58,0,27.66,0s11.04,4.95,11.04,11.04-4.95,11.04-11.04,11.04Zm0-19.83c-4.85,0-8.79,3.94-8.79,8.79s3.94,8.79,8.79,8.79,8.79-3.94,8.79-8.79-3.94-8.79-8.79-8.79Z"/>
      <path class="cls-1" d="m48.02,22.2c-4.62,0-8.38-3.76-8.38-8.38s3.76-8.38,8.38-8.38,8.38,3.76,8.38,8.38-3.76,8.38-8.38,8.38Zm0-14.51c-3.38,0-6.13,2.75-6.13,6.13s2.75,6.13,6.13,6.13,6.13-2.75,6.13-6.13-2.75-6.13-6.13-6.13Z"/>
    </g>
  </g>
</svg>