<?xml version="1.0" encoding="UTF-8"?>
<svg id="Layer_2" data-name="Layer 2" xmlns="http://www.w3.org/2000/svg" viewBox="0 0 52.35 53.96">
  <defs>
    <style>
      .cls-1 {
        fill: #231f20;
      }

      .cls-1, .cls-2 {
        stroke: #353535;
        stroke-miterlimit: 10;
        stroke-width: 1.87px;
      }

      .cls-2 {
        fill: none;
      }
    </style>
  </defs>
  <g id="Layer_1-2" data-name="Layer 1">
    <g>
      <g>
        <path class="cls-2" d="m2.41,26.17C2.41,13.05,13.05,2.41,26.17,2.41s23.77,10.64,23.77,23.77"/>
        <line class="cls-2" x1="49.94" y1="2.41" x2="2.41" y2="2.41"/>
        <path class="cls-1" d="m3.88,2.15c0,.67-.55,1.22-1.22,1.22s-1.22-.55-1.22-1.22.55-1.22,1.22-1.22,1.22.55,1.22,1.22Z"/>
        <path class="cls-1" d="m51.16,2.15c0,.67-.55,1.22-1.22,1.22s-1.22-.55-1.22-1.22.55-1.22,1.22-1.22,1.22.55,1.22,1.22Z"/>
        <rect class="cls-2" x="24.7" y=".93" width="2.95" height="2.95"/>
        <rect class="cls-2" x=".93" y="24.7" width="2.95" height="2.95"/>
        <rect class="cls-2" x="48.47" y="24.7" width="2.95" height="2.95"/>
      </g>
      <path class="cls-2" d="m22.29,44.63c-.14-3.76-.95-10.09-10.74-13.37,9.8-3.62,14.62-16.98,14.62-23.23h0"/>
      <path class="cls-2" d="m30.05,44.63c.14-3.76.95-10.09,10.74-13.37-9.8-3.62-14.62-16.98-14.62-23.23h0"/>
      <path class="cls-2" d="m26.42,42.14h-.49c-1.97,0-3.71,1.59-3.9,3.55l-.69,7.33h9.66l-.69-7.33c-.18-1.96-1.93-3.55-3.9-3.55Z"/>
      <line class="cls-2" x1="26.17" y1="8.04" x2="26.17" y2="32.61"/>
      <path class="cls-1" d="m27.39,32.61c0,.67-.55,1.22-1.22,1.22s-1.22-.55-1.22-1.22.55-1.22,1.22-1.22,1.22.55,1.22,1.22Z"/>
    </g>
  </g>
</svg>