<?xml version="1.0" encoding="UTF-8"?>
<svg id="Layer_2" data-name="Layer 2" xmlns="http://www.w3.org/2000/svg" viewBox="0 0 29.6 52.43">
  <defs>
    <style>
      .cls-1 {
        fill: #f9fbf2;
      }

      .cls-2 {
        fill: #fdde93;
      }

      .cls-3 {
        fill: #8abf56;
      }

      .cls-4 {
        fill: #c5dc75;
      }
    </style>
  </defs>
  <g id="Layer_1-2" data-name="Layer 1">
    <g id="_33_App_Design_Mobile_Tablet_Edit_Tools" data-name="33, App, Design, Mobile, Tablet, Edit Tools">
      <g>
        <path class="cls-3" d="m25.03,0H4.57C2.01,0,0,2.1,0,4.57v43.29c0,2.56,2.1,4.57,4.57,4.57h20.46c2.56,0,4.57-2.1,4.57-4.57V4.57c.09-2.56-2.01-4.57-4.57-4.57Z"/>
        <path class="cls-1" d="m26.21,5.85v40.83c0,1.37-1.1,2.47-2.47,2.47H5.85c-1.37,0-2.47-1.1-2.47-2.47V5.85c0-1.37.91-2.47,2.28-2.47h4.57v.18c0,.82.64,1.46,1.46,1.46h6.12c.82,0,1.46-.64,1.46-1.46v-.18h4.48c1.37,0,2.47,1.1,2.47,2.47Z"/>
        <path class="cls-3" d="m23.38,27.95v12.06c0,2.19-1.74,3.93-3.93,3.93h-9.32c-2.19,0-3.93-1.74-3.93-3.93v-12.06h17.17Z"/>
        <rect class="cls-3" x="11.05" y="21.65" width="2.37" height="6.3"/>
        <rect class="cls-4" x="8.68" y="21.65" width="2.37" height="6.3"/>
        <polygon class="cls-2" points="11.05 15.98 13.43 21.65 11.05 21.65 8.68 21.65 11.05 15.98"/>
        <g>
          <polygon class="cls-3" points="20.55 25.67 20.55 27.95 15.98 27.95 15.98 15.98 20.55 15.98 20.55 18.82 20.55 22.19 20.55 25.67"/>
          <path class="cls-4" d="m18.27,25.67c0,.27.27.55.55.55h1.74v-1.1h-1.74c-.27,0-.55.18-.55.55Z"/>
          <path class="cls-4" d="m18.27,22.19c0,.27.27.55.55.55h1.74v-1.1h-1.74c-.27,0-.55.27-.55.55Z"/>
          <path class="cls-4" d="m18.27,18.82c0,.27.27.55.55.55h1.74v-1.1h-1.74c-.27,0-.55.18-.55.55Z"/>
        </g>
      </g>
    </g>
  </g>
</svg>