<?xml version="1.0" encoding="UTF-8"?>
<svg id="Layer_2" data-name="Layer 2" xmlns="http://www.w3.org/2000/svg" viewBox="0 0 67.03 74.11">
  <defs>
    <style>
      .cls-1 {
        fill: #04703c;
        stroke: #04703c;
        stroke-miterlimit: 10;
        stroke-width: 1.2px;
      }

      .cls-2 {
        fill: #010101;
        font-family: Poppins-Medium, Poppins;
        font-size: 8.58px;
        font-weight: 500;
      }
    </style>
  </defs>
  <g id="Layer_1-2" data-name="Layer 1">
    <g>
      <text class="cls-2" transform="translate(1.62 69.12)"><tspan x="0" y="0">PHOTOGRAPHY</tspan></text>
      <g>
        <path class="cls-1" d="m.63,12.45v32.66c0,2.9,2.35,5.26,5.26,5.26h20.21c3.06,2,6.72,3.18,10.65,3.18s7.59-1.17,10.65-3.18h13.76c2.9,0,5.26-2.35,5.26-5.26V12.45H.63Zm58.13,1.4c.92,0,1.67.75,1.67,1.67s-.75,1.67-1.67,1.67-1.67-.75-1.67-1.67.75-1.67,1.67-1.67Zm-46.21,4.26v26.7h-3.38v-27.57c0-2.1,4.23-3.63,5.01-2.91.78.72-1.63,2.26-1.63,3.79Zm24.07,30.58c-9.41,0-17.05-7.63-17.05-17.05s7.63-17.05,17.05-17.05,17.05,7.63,17.05,17.05-7.63,17.05-17.05,17.05Zm26.32-4.51h-7.35v-4.05h7.35v4.05Z"/>
        <path class="cls-1" d="m61.15,7.12h-.31V2.82h-10.94v4.27c-2.66-.32-4.81-6.49-4.81-6.49h-17.17s-2.38,6.52-5.01,6.52h-.04V3.07h-10.95v4.05h-6.04c-2.58,0-4.72,1.87-5.16,4.32h65.59c-.44-2.46-2.58-4.32-5.16-4.32Zm-17.6.79h-13.04V2.98h13.04v4.93Z"/>
        <path class="cls-1" d="m36.68,22.78c-4.97,0-9.01,4.04-9.01,9.01s4.04,9.01,9.01,9.01,9.01-4.04,9.01-9.01-4.04-9.01-9.01-9.01Z"/>
        <path class="cls-1" d="m36.61,19.49c-6.72,0-12.16,5.44-12.16,12.16s5.44,12.16,12.16,12.16,12.16-5.44,12.16-12.16-5.44-12.16-12.16-12.16Zm.07,22.12c-5.42,0-9.82-4.41-9.82-9.82s4.41-9.82,9.82-9.82,9.82,4.41,9.82,9.82-4.41,9.82-9.82,9.82Z"/>
      </g>
    </g>
  </g>
</svg>