<?xml version="1.0" encoding="UTF-8"?>
<svg id="Layer_2" data-name="Layer 2" xmlns="http://www.w3.org/2000/svg" viewBox="0 0 84.68 64.89">
  <defs>
    <style>
      .cls-1, .cls-2 {
        fill: #8abf56;
      }

      .cls-2 {
        stroke: #8abf56;
        stroke-miterlimit: 10;
        stroke-width: 1.4px;
      }
    </style>
  </defs>
  <g id="Layer_1-2" data-name="Layer 1">
    <g>
      <g>
        <rect class="cls-2" x="20.49" y="29.52" width="54.84" height="34.67" rx="4.2" ry="4.2"/>
        <path class="cls-1" d="m15.76,56.34l-13.68,4.34c-1.03.33-2.09-.44-2.09-1.53v-25.32c0-1.08,1.06-1.85,2.09-1.53l13.81,4.41c.67.21,1.12.84,1.11,1.54l-.13,16.57c0,.69-.46,1.3-1.12,1.51Z"/>
        <path class="cls-1" d="m79.73,30.99l2.92-.93c1.01-.32,2.04.43,2.04,1.49v6.35c0,1.06-1.03,1.81-2.04,1.49l-2.96-.94c-.65-.21-1.09-.82-1.09-1.5l.04-4.48c0-.68.45-1.27,1.09-1.48Z"/>
        <path class="cls-1" d="m35.41,26.67c-7.35,0-13.33-5.98-13.33-13.33S28.06,0,35.41,0s13.33,5.98,13.33,13.33-5.98,13.33-13.33,13.33Zm0-23.95c-5.86,0-10.62,4.76-10.62,10.62s4.76,10.62,10.62,10.62,10.62-4.76,10.62-10.62-4.76-10.62-10.62-10.62Z"/>
        <path class="cls-1" d="m59.99,26.81c-5.58,0-10.12-4.54-10.12-10.12s4.54-10.12,10.12-10.12,10.12,4.54,10.12,10.12-4.54,10.12-10.12,10.12Zm0-17.52c-4.08,0-7.41,3.32-7.41,7.41s3.32,7.41,7.41,7.41,7.41-3.32,7.41-7.41-3.32-7.41-7.41-7.41Z"/>
      </g>
      <circle class="cls-1" cx="35.51" cy="13.4" r="8.8"/>
      <circle class="cls-1" cx="60.15" cy="16.66" r="5.51"/>
    </g>
  </g>
</svg>