<?xml version="1.0" encoding="UTF-8"?>
<svg id="Layer_2" data-name="Layer 2" xmlns="http://www.w3.org/2000/svg" viewBox="0 0 44.64 78.9">
  <defs>
    <style>
      .cls-1 {
        fill: #04703c;
      }

      .cls-2 {
        fill: #f0efef;
      }

      .cls-3 {
        fill: #fdde93;
      }

      .cls-4 {
        fill: #8abf56;
      }

      .cls-5 {
        fill: #c5dc75;
      }

      .cls-6 {
        fill: #010101;
        font-family: Poppins-Medium, Poppins;
        font-size: 8.58px;
        font-weight: 500;
      }
    </style>
  </defs>
  <g id="Layer_1-2" data-name="Layer 1">
    <g>
      <g id="_33_App_Design_Mobile_Tablet_Edit_Tools" data-name="33, App, Design, Mobile, Tablet, Edit Tools">
        <g>
          <path class="cls-1" d="m34.24,0H11.54c-2.84,0-5.07,2.33-5.07,5.07v48.05c0,2.84,2.33,5.07,5.07,5.07h22.71c2.84,0,5.07-2.33,5.07-5.07V5.07c.1-2.84-2.23-5.07-5.07-5.07Z"/>
          <path class="cls-2" d="m35.56,6.49v45.31c0,1.52-1.22,2.74-2.74,2.74H12.96c-1.52,0-2.74-1.22-2.74-2.74V6.49c0-1.52,1.01-2.74,2.53-2.74h5.07v.2c0,.91.71,1.62,1.62,1.62h6.79c.91,0,1.62-.71,1.62-1.62v-.2h4.97c1.52,0,2.74,1.22,2.74,2.74Z"/>
          <path class="cls-1" d="m32.42,31.02v13.38c0,2.43-1.93,4.36-4.36,4.36h-10.34c-2.43,0-4.36-1.93-4.36-4.36v-13.38h19.06Z"/>
          <rect class="cls-4" x="18.73" y="24.02" width="2.64" height="6.99"/>
          <rect class="cls-5" x="16.1" y="24.02" width="2.64" height="6.99"/>
          <polygon class="cls-3" points="18.73 17.74 21.37 24.02 18.73 24.02 16.1 24.02 18.73 17.74"/>
          <g>
            <polygon class="cls-4" points="29.28 28.48 29.28 31.02 24.21 31.02 24.21 17.74 29.28 17.74 29.28 20.88 29.28 24.63 29.28 28.48"/>
            <path class="cls-5" d="m26.74,28.48c0,.3.3.61.61.61h1.93v-1.22h-1.93c-.3,0-.61.2-.61.61Z"/>
            <path class="cls-5" d="m26.74,24.63c0,.3.3.61.61.61h1.93v-1.22h-1.93c-.3,0-.61.3-.61.61Z"/>
            <path class="cls-5" d="m26.74,20.88c0,.3.3.61.61.61h1.93v-1.22h-1.93c-.3,0-.61.2-.61.61Z"/>
          </g>
        </g>
      </g>
      <text class="cls-6" transform="translate(0 73.91)"><tspan x="0" y="0">UX DESIGN</tspan></text>
    </g>
  </g>
</svg>