<?xml version="1.0" encoding="UTF-8"?>
<svg id="Layer_2" data-name="Layer 2" xmlns="http://www.w3.org/2000/svg" viewBox="0 0 67.36 53.53">
  <defs>
    <style>
      .cls-1 {
        fill: #353535;
      }

      .cls-2 {
        fill: none;
        stroke: #353535;
        stroke-miterlimit: 10;
        stroke-width: 1.4px;
      }
    </style>
  </defs>
  <g id="Layer_1-2" data-name="Layer 1">
    <g>
      <g>
        <rect class="cls-2" x=".7" y=".7" width="65.96" height="43.97"/>
        <rect class="cls-2" x="3.54" y="3.54" width="60.28" height="36.3"/>
        <rect class="cls-2" x="27.73" y="44.67" width="11.91" height="3.97"/>
        <rect class="cls-2" x="25.16" y="48.64" width="17.05" height="4.19"/>
      </g>
      <g>
        <path class="cls-1" d="m19.57,16.51c.15-.09.33-.14.54-.14.15,0,.29.03.43.09.13.06.25.14.34.23s.18.21.23.34.09.27.09.43c0,.4-.18.71-.54.95l-6.34,3.79,6.34,3.81c.36.24.54.55.54.94,0,.31-.11.57-.32.78-.21.2-.47.31-.78.31-.21,0-.39-.05-.54-.14l-7.87-4.72c-.38-.24-.57-.56-.57-.97,0-.38.19-.7.57-.96l7.87-4.73Z"/>
        <path class="cls-1" d="m37.51,14.5l-6.42,16.04c-.26.43-.59.65-1,.65-.31,0-.57-.1-.78-.31-.2-.21-.31-.47-.31-.78,0-.14.03-.29.09-.45l6.42-16.04c.06-.12.14-.23.24-.33.21-.21.46-.31.76-.31s.55.11.76.32c.21.21.32.47.32.76,0,.17-.03.32-.09.46Z"/>
        <path class="cls-1" d="m54.76,21.24c.38.26.57.58.57.96,0,.41-.19.73-.57.97l-7.87,4.72c-.15.09-.33.14-.54.14-.31,0-.56-.1-.78-.31-.21-.2-.32-.46-.32-.78,0-.39.18-.7.54-.94l6.34-3.81-6.34-3.79c-.36-.24-.54-.55-.54-.95,0-.15.03-.29.09-.43s.14-.25.23-.34c.1-.1.21-.18.34-.23.13-.06.27-.09.43-.09.21,0,.39.05.54.14l7.87,4.73Z"/>
      </g>
    </g>
  </g>
</svg>