<?xml version="1.0" encoding="UTF-8"?>
<svg id="Layer_2" data-name="Layer 2" xmlns="http://www.w3.org/2000/svg" viewBox="0 0 59.88 58.34">
  <defs>
    <style>
      .cls-1 {
        fill: none;
        fill-rule: evenodd;
        stroke: #353535;
        stroke-linecap: round;
        stroke-linejoin: round;
        stroke-width: 1.4px;
      }
    </style>
  </defs>
  <g id="Layer_1-2" data-name="Layer 1">
    <path class="cls-1" d="m5.96,23.17h50.56c1.48,0,2.67,1.21,2.67,2.67v6.08H3.29v-6.08c0-1.46,1.19-2.67,2.67-2.67h0Zm-3.8-8.74L53.13.76c1.04-.27,2.12.35,2.39,1.38l1.14,4.25c.27,1.04-.35,2.12-1.38,2.4L4.3,22.45c-1.04.3-2.12-.35-2.4-1.38l-1.14-4.25c-.3-1.04.35-2.1,1.38-2.4h0Zm5.43.37l1.95-.52c.37-.1.72-.02.77.15l1.06,3.95c.05.2-.22.42-.59.52l-1.95.54c-.37.1-.72.02-.77-.17l-1.06-3.95c-.05-.17.2-.42.59-.52h0ZM46.64,4.32l1.98-.52c.37-.1.72-.02.77.15l1.06,3.95c.05.2-.22.42-.59.54l-1.95.52c-.37.1-.72.03-.77-.17l-1.06-3.95c-.05-.17.2-.42.57-.52h0Zm-7.81,2.1l1.95-.52c.4-.1.74-.05.79.15l1.04,3.95c.05.2-.2.42-.57.52l-1.98.54c-.37.1-.72.02-.77-.17l-1.06-3.95c-.05-.2.22-.42.59-.52h0Zm-7.8,2.1l1.95-.54c.37-.1.72-.02.77.17l1.06,3.95c.05.2-.22.42-.59.52l-1.95.52c-.37.1-.72.05-.77-.15l-1.06-3.95c-.05-.2.22-.42.59-.52h0Zm-7.83,2.07l1.98-.52c.37-.1.72-.02.77.17l1.06,3.95c.05.17-.22.42-.59.52l-1.95.52c-.4.1-.74.02-.79-.15l-1.04-3.95c-.05-.2.2-.42.57-.54h0Zm-7.81,2.1l1.95-.52c.37-.1.72-.02.77.15l1.06,3.98c.05.17-.2.42-.57.52l-1.98.52c-.37.1-.72.02-.77-.15l-1.06-3.98c-.05-.17.22-.42.59-.52h0Zm43.79,21.36v20.92c0,1.46-1.19,2.67-2.67,2.67H5.96c-1.48,0-2.67-1.21-2.67-2.67v-20.92h55.89ZM10.01,25.12h2.03c.37,0,.69.15.69.35v4.1c0,.2-.32.35-.69.35h-2.03c-.4,0-.72-.15-.72-.35v-4.1c0-.2.32-.35.72-.35h0Zm40.43,0h2.02c.4,0,.72.15.72.35v4.1c0,.2-.32.35-.72.35h-2.02c-.37,0-.69-.15-.69-.35v-4.1c0-.2.32-.35.69-.35h0Zm-8.08,0h2.03c.4,0,.69.15.69.35v4.1c0,.2-.3.35-.69.35h-2.03c-.4,0-.72-.15-.72-.35v-4.1c0-.2.32-.35.72-.35h0Zm-8.1,0h2.03c.4,0,.72.15.72.35v4.1c0,.2-.32.35-.72.35h-2.03c-.37,0-.69-.15-.69-.35v-4.1c0-.2.32-.35.69-.35h0Zm-8.08,0h2.03c.37,0,.69.15.69.35v4.1c0,.2-.32.35-.69.35h-2.03c-.4,0-.72-.15-.72-.35v-4.1c0-.2.32-.35.72-.35h0Zm-8.1,0h2.02c.4,0,.72.15.72.35v4.1c0,.2-.32.35-.72.35h-2.02c-.4,0-.69-.15-.69-.35v-4.1c0-.2.3-.35.69-.35h0Z"/>
  </g>
</svg>