<?xml version="1.0" encoding="UTF-8" standalone="no"?>
<!-- Created with Inkscape (http://www.inkscape.org/) -->

<svg
   xmlns:dc="http://purl.org/dc/elements/1.1/"
   xmlns:cc="http://creativecommons.org/ns#"
   xmlns:rdf="http://www.w3.org/1999/02/22-rdf-syntax-ns#"
   xmlns:svg="http://www.w3.org/2000/svg"
   xmlns="http://www.w3.org/2000/svg"
   xmlns:sodipodi="http://sodipodi.sourceforge.net/DTD/sodipodi-0.dtd"
   xmlns:inkscape="http://www.inkscape.org/namespaces/inkscape"
   width="64"
   height="64"
   viewBox="0 0 16.933333 16.933333"
   version="1.1"
   id="svg8"
   inkscape:version="0.92.3 (2405546, 2018-03-11)"
   sodipodi:docname="15-Mantenance.svg">
  <defs
     id="defs2" />
  <sodipodi:namedview
     id="base"
     pagecolor="#ffffff"
     bordercolor="#666666"
     borderopacity="1.0"
     inkscape:pageopacity="0.0"
     inkscape:pageshadow="2"
     inkscape:zoom="5.656854"
     inkscape:cx="47.462574"
     inkscape:cy="4.968013"
     inkscape:document-units="px"
     inkscape:current-layer="layer2"
     showgrid="false"
     inkscape:snap-smooth-nodes="true"
     inkscape:snap-page="true"
     inkscape:snap-midpoints="false"
     inkscape:snap-intersection-paths="true"
     inkscape:object-paths="true"
     inkscape:object-nodes="true"
     units="px"
     inkscape:snap-bbox="true"
     inkscape:bbox-paths="false"
     inkscape:snap-bbox-midpoints="false"
     inkscape:window-width="1920"
     inkscape:window-height="1040"
     inkscape:window-x="0"
     inkscape:window-y="0"
     inkscape:window-maximized="1"
     inkscape:snap-grids="true"
     inkscape:snap-to-guides="false"
     inkscape:snap-bbox-edge-midpoints="false"
     inkscape:snap-nodes="true"
     inkscape:snap-others="false"
     inkscape:bbox-nodes="true"
     showguides="true"
     inkscape:guide-bbox="true"
     inkscape:measure-start="0,0"
     inkscape:measure-end="0,0"
     inkscape:snap-global="true">
    <inkscape:grid
       type="xygrid"
       id="grid815"
       enabled="true" />
  </sodipodi:namedview>
  <metadata
     id="metadata5">
    <rdf:RDF>
      <cc:Work
         rdf:about="">
        <dc:format>image/svg+xml</dc:format>
        <dc:type
           rdf:resource="http://purl.org/dc/dcmitype/StillImage" />
        <dc:title />
      </cc:Work>
    </rdf:RDF>
  </metadata>
  <g
     inkscape:groupmode="layer"
     id="layer2"
     inkscape:label="15-Mantenance">
    <path
       inkscape:connector-curvature="0"
       id="Icon_29"
       style="color:#000000;font-style:normal;font-variant:normal;font-weight:normal;font-stretch:normal;font-size:medium;line-height:normal;font-family:sans-serif;font-variant-ligatures:normal;font-variant-position:normal;font-variant-caps:normal;font-variant-numeric:normal;font-variant-alternates:normal;font-feature-settings:normal;text-indent:0;text-align:start;text-decoration:none;text-decoration-line:none;text-decoration-style:solid;text-decoration-color:#000000;letter-spacing:normal;word-spacing:normal;text-transform:none;writing-mode:lr-tb;direction:ltr;text-orientation:mixed;dominant-baseline:auto;baseline-shift:baseline;text-anchor:start;white-space:normal;shape-padding:0;clip-rule:nonzero;display:inline;overflow:visible;visibility:visible;isolation:auto;mix-blend-mode:normal;color-interpolation:sRGB;color-interpolation-filters:linearRGB;solid-color:#000000;solid-opacity:1;vector-effect:none;fill:#000000;fill-opacity:1;fill-rule:nonzero;stroke:none;stroke-width:0.99999994;stroke-linecap:round;stroke-linejoin:round;stroke-miterlimit:4;stroke-dasharray:none;stroke-dashoffset:0;stroke-opacity:1;color-rendering:auto;image-rendering:auto;shape-rendering:auto;text-rendering:auto;enable-background:accumulate"
       d="m 13.564196,4.9216267 -0.94413,0.6966 c -0.38475,-0.2235599 -0.80459,-0.4055398 -1.2454,-0.51987 l -0.17518,-1.1668499 c -0.002,-0.0662 -0.0565,-0.13311 -0.0822,-0.1560599 -0.0447,-0.0442 -0.120719,-0.0641 -0.148309,-0.0682 -0.30153,-0.005 -0.61023,-0.00201 -0.91416,-0.00201 h -0.8826306 -0.00201 -0.00201 c -0.0819,-0.007 -0.15269,0.0497 -0.1896499,0.0817 -0.0465,0.0483 -0.0624,0.10699 -0.0703,0.1426299 L 8.7335449,5.1010659 c -0.1729301,0.0371 -0.3600501,0.10443 -0.5322599,0.1751899 V 4.4979959 c 0,-0.43516 -0.35755,-0.7927099 -0.79272,-0.7927099 V 3.1761267 c 0.43517,0 0.79272,-0.3601299 0.79272,-0.7952999 v -1.05841 C 8.2012765,0.88724687 7.8437366,0.52917689 7.4085766,0.52917689 H 1.3223867 c -0.43516987,0 -0.79322985,0.35806998 -0.79322985,0.79323991 v 1.05833 c 0,0.43517 0.35805998,0.7953 0.79322985,0.7953 v 0.5291698 c -0.43516987,0 -0.79322985,0.35755 -0.79322985,0.7927102 v 1.0588498 c 0,0.43517 0.35805998,0.79272 0.79322985,0.79272 h 3.5403501 c -0.006,0.0655 0.0118,0.1311499 0.0512,0.18397 0.2349,0.3171201 0.4699301,0.6341401 0.70539,0.95084 -0.2310701,0.3788701 -0.4193701,0.8629899 -0.52555,1.2490199 -0.3877202,0.0607 -0.7760801,0.1171299 -1.1642701,0.1746699 -0.1292199,0.019899 -0.2245199,0.13125 -0.2242799,0.2620002 v 1.7673294 c -2.4e-4,0.13075 0.0951,0.24207 0.2242799,0.262 0.3894801,0.0575 0.7785499,0.11619 1.1678901,0.17467 0.1146299,0.42929 0.2893798,0.8692 0.5162399,1.25315 -0.2329701,0.31603 -0.4661,0.63166 -0.6997001,0.94723 -0.1238398,0.16632 -0.006,0.32491 0.0563,0.37827 0.4066199,0.40432 0.81192,0.81008 1.2175001,1.21543 0.0929,0.0932 0.2402199,0.10405 0.3457098,0.0253 0.3181001,-0.23434 0.6355001,-0.46961 0.9529199,-0.70486 0.43962,0.25332 0.86087,0.42297 1.24798,0.52296 l 0.17364,1.16634 c 0.019,0.13004 0.13057,0.22642 0.2619999,0.22634 h 1.7673307 c 0.0727,-3.97e-4 0.142019,-0.0307 0.191719,-0.0837 0.0201,-0.0213 0.0365,-0.0457 0.0486,-0.0724 0.0411,-0.0642 0.13457,-0.82885 0.19534,-1.23765 0.45476,-0.11542 0.87091,-0.31265 1.25419,-0.51728 l 0.94723,0.70022 c 0.0457,0.0342 0.10112,0.0526 0.15813,0.0527 0.0704,-2e-5 0.13793,-0.0281 0.18758,-0.078 l 1.25006,-1.247989 c 0.0932,-0.0929 0.10404,-0.24022 0.0253,-0.34572 l -0.70332,-0.948771 c 0.2226,-0.3848 0.40776,-0.81516 0.52038,-1.25109 l 0.94258,-0.14211 0.20309,-0.031 c 0.13861,-0.01 0.24604,-0.12511 0.24598,-0.26407 V 9.1699765 c -2.1e-4,-0.1387599 -0.10757,-0.2537798 -0.24598,-0.2635498 l -1.14825,-0.17208 c -0.11048,-0.4298302 -0.29042,-0.86776 -0.51728,-1.2541901 l 0.68884,-0.93121 c 0.0903,-0.1049398 0.0845,-0.2617499 -0.0134,-0.3596701 l -1.24899,-1.2500498 c -0.039,-0.0478 -0.11587,-0.0702 -0.15238,-0.0739 -0.10191,-0.0152 -0.16646,0.0321 -0.20254,0.0563 z M 1.3223867,1.0588669 H 2.6463368 V 2.6463668 H 1.3223867 c -0.1511599,0 -0.2635499,-0.11446 -0.2635499,-0.26562 v -1.05833 c 0,-0.15117 0.11239,-0.2635499 0.2635499,-0.2635499 z m 1.8536401,0 h 4.2322998 c 0.1511599,0 0.2656099,0.1123799 0.2656099,0.2635499 v 1.05833 c 0,0.15116 -0.11445,0.26562 -0.2656099,0.26562 H 3.1760268 Z M 1.8520767,1.5875168 c -0.14613,0 -0.26459,0.11845 -0.26459,0.26458 0,0.14613 0.11846,0.26458 0.26459,0.26458 0.14612,0 0.2645801,-0.11845 0.2645801,-0.26458 0,-0.14613 -0.1184601,-0.26458 -0.2645801,-0.26458 z m 2.11666,5.107e-4 c -0.14532,5.688e-4 -0.2629799,0.11823 -0.2635498,0.26355 -5.821e-4,0.14613 0.1174297,0.2650499 0.2635498,0.2656199 H 6.8786366 C 7.0257767,2.1180573 7.1453467,1.9987174 7.1447767,1.8515775 7.1441867,1.7052468 7.0249665,1.5871768 6.8786366,1.5880268 Z m -2.11718,1.5880193 H 6.8786366 V 3.7052166 H 1.8515567 Z m -0.52917,1.0562698 H 2.6463368 V 5.8203267 H 1.3223867 c -0.1511599,0 -0.2635499,-0.1123799 -0.2635499,-0.2635501 V 4.4979268 c 0,-0.1511601 0.11239,-0.2656102 0.2635499,-0.2656102 z m 1.8536401,0 h 4.2322998 c 0.1511599,0 0.2656099,0.1144501 0.2656099,0.2656102 v 1.0588498 c 0,0.1511702 -0.11445,0.2635501 -0.2656099,0.2635501 H 3.1760268 Z m 6.2223599,0.00101 0.6562903,0.00101 h 0.65422 l 0.16795,1.11311 c 0.0158,0.1073401 0.0954,0.1941801 0.201019,0.2191001 0.6122,0.1510199 1.00747,0.34563 1.42213,0.5916999 0.0916,0.0577 0.20907,0.0538 0.29663,-0.01 l 0.90847,-0.6738679 c 0.30969,0.3087902 0.62004,0.6173102 0.92759,0.9281102 l -0.66973,0.9038299 c -0.0645,0.0872 -0.0692,0.20502 -0.0119,0.29714 0.2741,0.43859 0.47198,0.9213001 0.58601,1.4257499 0.0244,0.1068602 0.11214,0.18763 0.22066,0.2030899 l 1.11724,0.16588 v 1.3105094 l -1.11311,0.16588 c -0.10792,0.0161 -0.19493,0.0967 -0.21911,0.20309 -0.11634,0.50399 -0.31768,0.98481 -0.59376,1.42214 -0.058,0.0925 -0.0533,0.21111 0.0119,0.29869 l 0.67179,0.90847 -0.92552,0.92553 -0.90641,-0.66973 c -0.0871,-0.0643 -0.20463,-0.069 -0.29662,-0.0119 -0.45635,0.27369 -0.94454,0.47654 -1.42627,0.58808 -0.105429,0.0249 -0.185069,0.11145 -0.201019,0.21859 l -0.16795,1.11724 H 9.3983769 l -0.1658901,-1.11518 c -0.0162,-0.10772 -0.0969,-0.19448 -0.2030801,-0.21859 -0.4181798,-0.0967 -0.8200998,-0.2555 -1.1973499,-0.46509 -0.0821,-0.0454 -0.1566399,-0.0856 -0.2227199,-0.12712 -0.0925,-0.058 -0.21112,-0.0533 -0.29869,0.0119 l -0.91002,0.67179 c -0.3086899,-0.3085 -0.6174499,-0.61693 -0.9260499,-0.92552 0.22269,-0.30254 0.4463799,-0.60435 0.66973,-0.90641 0.0643,-0.0871 0.069,-0.20462 0.011901,-0.29662 -0.2738901,-0.43827 -0.4719201,-0.91999 -0.5860201,-1.4242 -0.024101,-0.10624 -0.1108599,-0.18684 -0.21859,-0.20309 -0.3731498,-0.0557 -0.7462499,-0.11169 -1.1193097,-0.16795 V 9.3981884 c 0.3711498,-0.0557 0.7423898,-0.1108099 1.1136299,-0.16588 0.1085199,-0.015499 0.19627,-0.0962 0.2206598,-0.2030899 0.16017,-0.6662301 0.30221,-0.91752 0.5916901,-1.4221399 0.058,-0.0925 0.0533,-0.21111 -0.011901,-0.29869 C 5.9235069,7.0061387 5.6994469,6.7050786 5.475607,6.4035385 l 0.0517,-0.0543 h 1.88103 c 0.3215201,0 0.5995199,-0.19582 0.7234701,-0.47336 0.2962698,-0.1375399 0.5937099,-0.22739 0.8976198,-0.3059199 0.1062299,-0.024101 0.18684,-0.11087 0.2030801,-0.21859 z m -5.42551,0.52813 c -0.1471399,-5.821e-4 -0.2664799,0.119 -0.26562,0.2661298 5.821e-4,0.1461302 0.1194901,0.26412 0.26562,0.2635501 h 2.9057599 c 0.1463299,8.422e-4 0.26557,-0.1172244 0.2661401,-0.2635546 8.732e-4,-0.1473398 -0.1188,-0.2669998 -0.2661401,-0.2661298 z m -2.1208,0.00101 c -0.14613,0 -0.26459,0.11846 -0.26459,0.2645802 0,0.1461299 0.11846,0.2645899 0.26459,0.2645899 0.14612,0 0.2645801,-0.11846 0.2645801,-0.2645899 0,-0.1461202 -0.1184601,-0.2645802 -0.2645801,-0.2645802 z m 8.2026003,1.8526 c -1.8965003,0 -3.4395903,1.5430899 -3.4395903,3.4395804 0,1.896499 1.54309,3.439589 3.4395903,3.439589 1.896489,0 3.439579,-1.54309 3.439579,-3.439589 0,-1.8964905 -1.54309,-3.4395804 -3.439579,-3.4395804 z m 2.910409,3.4395804 c 0,1.236239 -0.76723,2.286709 -1.85156,2.709399 v -1.14205 c 0.65663,-0.38073 1.05538,-1.07724 1.05626,-1.8329595 -9.53e-4,-0.8160699 -0.47139,-1.5602201 -1.208709,-1.9099601 -0.0389,-0.018701 -0.0819,-0.0276 -0.12506,-0.025799 -0.14165,0.007 -0.25287,0.1237999 -0.25218,0.2656099 v 1.4066401 c 0,0.1511498 -0.11446,0.2635499 -0.26561,0.2635499 H 9.7890567 c -0.1511602,0 -0.2635502,-0.1124001 -0.2635502,-0.2635499 V 8.1188767 c 7.938e-4,-0.1951501 -0.2027399,-0.32399 -0.3787899,-0.23978 -0.73713,0.3496498 -1.2080499,1.0941097 -1.20923,1.9099598 0.00101,0.7462695 0.40244,1.4588195 1.0578201,1.8298595 l 0.00101,1.14567 c -1.0846599,-0.42253 -1.85157,-1.47344 -1.85157,-2.709909 0,-1.6105105 1.2993901,-2.9099004 2.9099153,-2.9099154 1.610524,-1.5e-5 2.910424,1.2993749 2.910424,2.9098854 z m -1.85156,-1.4469404 c 0.14981,0.1386399 0.52052,0.52334 0.52916,1.1813299 -7.15e-4,0.6131095 -0.35451,1.1707395 -0.908469,1.4334995 -0.0917,0.0439 -0.1502,0.13652 -0.15038,0.23823 v 1.45366 c -0.17175,0.0314 -0.34816,0.0506 -0.52916,0.0506 -0.1810106,0 -0.3574204,-0.0192 -0.5291705,-0.0506 v -1.45368 c 2.501e-4,-0.10293 -0.0592,-0.19667 -0.15245,-0.2403 -0.5538099,-0.26269 -0.90552,-0.81848 -0.9064,-1.4314294 -0.006,-0.5122201 0.2798101,-0.9745501 0.5296802,-1.18081 v 0.9172599 c 0,0.44069 0.3575598,0.7927095 0.79272,0.7927095 h 0.5291703 c 0.44318,0 0.795299,-0.3575493 0.795299,-0.7927095 z"
       sodipodi:nodetypes="cccccccccccccccccccccccccccccccccccccccccccccccccccccccccccccccccccccccccccccccccccccccccccccccccccccccccccccccccccccccccccccccccccccccccccccccccccccccccccccccccccccccccccccccccccccccccccccccccccccccccccccccccccccccccc"
       inkscape:export-filename="/home/wanzabuyumna/@WANZ_DESIGN/Export/Style Line/Icon 29/Icon 29.png"
       inkscape:export-xdpi="102.4"
       inkscape:export-ydpi="102.4" />
  </g>
</svg>
