<?xml version="1.0" encoding="UTF-8"?><svg id="Layer_2" xmlns="http://www.w3.org/2000/svg" viewBox="0 0 271.2 45.58"><defs><style>.cls-1{fill:#fff;}</style></defs><g id="Layer_1-2"><path class="cls-1" d="m44.52,20.88v.12c0,6.84,5.07,12.54,12.31,12.54v8.85c-6.71,0-12.44-2.77-16.32-7.19l2.76,6.5h-9.96l-3.26-8.45H12.98l-3.26,8.45H0l3.62-8.49c9.46-4.23,20.08-7.81,31.55-10.56h0c-.02-.41-.04-.82-.04-1.24v-.12C35.13,9.67,44.23.17,56.83.17v8.28c-7.23,0-12.31,5.59-12.31,12.43Zm-10.74-1.49c-2.69.37-5.58.79-8.58,1.27l-3.69-9.57-4.21,10.94c-3.26.61-6.56,1.27-9.78,1.99L17.5.57h8.28l8,18.81Z"/><path class="cls-1" d="m87.73,15.22l1.78-2.11c1.61,1.39,3.22,2.19,5.31,2.19,1.83,0,2.98-.84,2.98-2.11v-.05c0-1.2-.67-1.85-3.79-2.57-3.58-.86-5.59-1.92-5.59-5.02v-.05c0-2.88,2.4-4.87,5.74-4.87,2.45,0,4.39.74,6.1,2.11l-1.58,2.23c-1.51-1.13-3.03-1.73-4.56-1.73-1.73,0-2.74.89-2.74,1.99v.05c0,1.3.77,1.87,3.99,2.64,3.55.86,5.4,2.14,5.4,4.92v.05c0,3.15-2.47,5.02-6,5.02-2.57,0-4.99-.89-7.01-2.69Z"/><path class="cls-1" d="m103.15,11.41v-.05c0-3.6,2.79-6.63,6.58-6.63,2.4,0,3.89.89,5.07,2.19l-1.8,1.95c-.89-.94-1.82-1.59-3.29-1.59-2.11,0-3.65,1.83-3.65,4.03v.05c0,2.26,1.56,4.08,3.79,4.08,1.37,0,2.38-.65,3.29-1.58l1.75,1.73c-1.25,1.39-2.71,2.38-5.19,2.38-3.77,0-6.56-2.95-6.56-6.56Z"/><path class="cls-1" d="m117.41.14h2.91v6.82c.82-1.2,1.99-2.23,3.96-2.23,2.86,0,4.51,1.92,4.51,4.87v8.07h-2.91v-7.2c0-1.97-.98-3.1-2.71-3.1s-2.86,1.18-2.86,3.15v7.16h-2.91V.14Z"/><path class="cls-1" d="m131.57,11.41v-.05c0-3.63,2.88-6.63,6.77-6.63s6.75,2.95,6.75,6.58v.05c0,3.6-2.88,6.6-6.8,6.6s-6.72-2.95-6.72-6.56Zm10.61,0v-.05c0-2.23-1.61-4.08-3.89-4.08s-3.82,1.83-3.82,4.03v.05c0,2.21,1.61,4.08,3.87,4.08s3.84-1.85,3.84-4.03Z"/><path class="cls-1" d="m147.3,11.41v-.05c0-3.63,2.88-6.63,6.77-6.63s6.75,2.95,6.75,6.58v.05c0,3.6-2.88,6.6-6.8,6.6s-6.72-2.95-6.72-6.56Zm10.61,0v-.05c0-2.23-1.61-4.08-3.89-4.08s-3.82,1.83-3.82,4.03v.05c0,2.21,1.61,4.08,3.87,4.08s3.84-1.85,3.84-4.03Z"/><path class="cls-1" d="m163.84.14h2.91v17.53h-2.91V.14Z"/><path class="cls-1" d="m177.05,11.41v-.05c0-3.63,2.88-6.63,6.77-6.63s6.75,2.95,6.75,6.58v.05c0,3.6-2.88,6.6-6.8,6.6s-6.72-2.95-6.72-6.56Zm10.61,0v-.05c0-2.23-1.61-4.08-3.89-4.08s-3.82,1.83-3.82,4.03v.05c0,2.21,1.61,4.08,3.87,4.08s3.84-1.85,3.84-4.03Z"/><path class="cls-1" d="m193.84,7.49h-1.61v-2.43h1.61v-.91c0-1.42.36-2.47,1.03-3.15.67-.67,1.61-1.01,2.86-1.01,1.01,0,1.7.14,2.35.34v2.45c-.58-.19-1.08-.31-1.71-.31-1.1,0-1.68.6-1.68,1.92v.7h3.36v2.4h-3.31v10.18h-2.91V7.49Z"/><path class="cls-1" d="m88.86,24.89h3.15l5.11,7.95,5.11-7.95h3.15v16.81h-2.95v-12.05l-5.31,7.92h-.1l-5.26-7.88v12.01h-2.91v-16.81Z"/><path class="cls-1" d="m108.78,35.4v-.05c0-3.63,2.57-6.6,6.2-6.6,4.03,0,6.08,3.17,6.08,6.82,0,.26-.02.53-.05.82h-9.32c.31,2.07,1.78,3.22,3.65,3.22,1.42,0,2.43-.53,3.43-1.51l1.7,1.51c-1.2,1.44-2.86,2.38-5.19,2.38-3.67,0-6.51-2.67-6.51-6.58Zm9.39-.94c-.19-1.87-1.3-3.34-3.22-3.34-1.78,0-3.03,1.37-3.29,3.34h6.51Z"/><path class="cls-1" d="m123.32,35.38v-.05c0-4.2,2.86-6.58,5.88-6.58,2.09,0,3.41,1.06,4.32,2.23v-6.82h2.91v17.53h-2.91v-2.11c-.94,1.32-2.26,2.38-4.32,2.38-2.98,0-5.88-2.38-5.88-6.58Zm10.25,0v-.05c0-2.45-1.73-4.06-3.67-4.06s-3.65,1.54-3.65,4.06v.05c0,2.45,1.68,4.06,3.65,4.06s3.67-1.63,3.67-4.06Z"/><path class="cls-1" d="m140.03,24.31h3.12v2.76h-3.12v-2.76Zm.12,4.71h2.91v12.68h-2.91v-12.68Z"/><path class="cls-1" d="m154.49,41.69v-1.56c-.86,1.03-2.19,1.83-4.11,1.83-2.4,0-4.51-1.37-4.51-3.91v-.05c0-2.81,2.18-4.15,5.14-4.15,1.54,0,2.52.22,3.51.53v-.24c0-1.75-1.11-2.71-3.12-2.71-1.42,0-2.47.31-3.63.79l-.79-2.33c1.39-.62,2.76-1.06,4.83-1.06,3.75,0,5.57,1.97,5.57,5.36v7.52h-2.88Zm.07-5.31c-.74-.29-1.78-.5-2.91-.5-1.83,0-2.91.74-2.91,1.97v.05c0,1.2,1.08,1.87,2.45,1.87,1.92,0,3.36-1.08,3.36-2.67v-.72Z"/><path class="cls-1" d="m177.79,39.75c-1.44,1.35-3.12,2.19-5.16,2.19-3.12,0-5.48-1.9-5.48-4.8v-.05c0-2.16,1.27-3.72,3.58-4.71-.96-1.22-1.39-2.28-1.39-3.5v-.05c0-2.26,1.83-4.23,4.83-4.23,2.66,0,4.47,1.8,4.47,4.06v.05c0,2.21-1.47,3.53-3.7,4.37l2.88,2.93c.65-.96,1.25-2.06,1.8-3.24l2.23,1.18c-.67,1.34-1.42,2.66-2.28,3.84l2.64,2.69-2.19,1.56-2.23-2.28Zm-1.68-1.73l-3.75-3.82c-1.56.67-2.23,1.7-2.23,2.79v.05c0,1.42,1.18,2.45,2.81,2.45,1.15,0,2.21-.55,3.17-1.46Zm-.1-9.15v-.05c0-1.13-.79-1.9-1.92-1.9-1.2,0-1.99.84-1.99,2.02v.05c0,.84.34,1.46,1.27,2.5,1.73-.62,2.64-1.42,2.64-2.62Z"/><path class="cls-1" d="m192.3,24.89h6.27c5.28,0,8.93,3.63,8.93,8.36v.05c0,4.73-3.65,8.41-8.93,8.41h-6.27v-16.81Zm6.27,14.12c3.53,0,5.84-2.38,5.84-5.67v-.05c0-3.29-2.31-5.71-5.84-5.71h-3.31v11.43h3.31Z"/><path class="cls-1" d="m210.07,35.4v-.05c0-3.63,2.57-6.6,6.2-6.6,4.03,0,6.08,3.17,6.08,6.82,0,.26-.02.53-.05.82h-9.32c.31,2.07,1.78,3.22,3.65,3.22,1.42,0,2.42-.53,3.43-1.51l1.7,1.51c-1.2,1.44-2.86,2.38-5.19,2.38-3.67,0-6.51-2.67-6.51-6.58Zm9.39-.94c-.19-1.87-1.3-3.34-3.22-3.34-1.78,0-3.02,1.37-3.29,3.34h6.51Z"/><path class="cls-1" d="m224.16,40.04l1.3-1.97c1.37,1.03,2.86,1.56,4.15,1.56s1.97-.53,1.97-1.37v-.05c0-.98-1.34-1.32-2.83-1.78-1.87-.53-3.96-1.3-3.96-3.72v-.05c0-2.4,1.99-3.87,4.51-3.87,1.58,0,3.31.55,4.66,1.44l-1.15,2.07c-1.22-.74-2.52-1.2-3.58-1.2-1.13,0-1.78.53-1.78,1.27v.05c0,.91,1.37,1.3,2.86,1.78,1.85.58,3.94,1.42,3.94,3.7v.05c0,2.67-2.07,3.99-4.71,3.99-1.8,0-3.8-.65-5.38-1.9Z"/><path class="cls-1" d="m237.12,24.31h3.12v2.76h-3.12v-2.76Zm.12,4.71h2.91v12.68h-2.91v-12.68Z"/><path class="cls-1" d="m243.7,44.07l1.08-2.18c1.35.84,2.79,1.34,4.51,1.34,2.59,0,4.01-1.34,4.01-3.89v-.98c-1.06,1.37-2.38,2.33-4.47,2.33-2.98,0-5.76-2.21-5.76-5.93v-.05c0-3.75,2.81-5.96,5.76-5.96,2.14,0,3.46.98,4.44,2.16v-1.9h2.9v10.08c0,2.14-.55,3.72-1.61,4.78-1.15,1.15-2.93,1.71-5.21,1.71-2.09,0-4.03-.53-5.67-1.51Zm9.63-9.32v-.05c0-2.09-1.7-3.51-3.72-3.51s-3.6,1.39-3.6,3.48v.05c0,2.09,1.61,3.51,3.6,3.51s3.72-1.44,3.72-3.48Z"/><path class="cls-1" d="m259.82,29.02h2.91v1.97c.82-1.2,1.99-2.23,3.96-2.23,2.86,0,4.51,1.92,4.51,4.87v8.07h-2.9v-7.2c0-1.97-.98-3.1-2.71-3.1s-2.86,1.18-2.86,3.14v7.16h-2.91v-12.68Z"/><path class="cls-1" d="m71.96,41.64l-.05.05V.86h1.87v40.83h-1.87l.05-.05Z"/></g></svg>