<svg width="334" height="55" viewBox="0 0 334 55" fill="none" xmlns="http://www.w3.org/2000/svg">
<path d="M55.154 24.9709V25.1053C55.154 33.2603 61.3966 40.0503 70.2972 40.0503V50.5959C62.0465 50.5959 55.0007 47.2929 50.2254 42.0236L53.6277 49.7613H41.3759L37.3746 39.6896H16.368L12.3668 49.7613H0.399414L4.84631 39.6401C16.485 34.5971 29.5399 30.3392 43.6612 27.0574C43.632 26.5623 43.6173 26.0743 43.6173 25.5721V25.4377C43.6173 11.6032 54.8108 0.279541 70.3047 0.279541V10.1533C61.4041 10.1533 55.1611 16.8088 55.1611 24.9639L55.154 24.9709ZM41.9452 23.1886C38.6303 23.6271 35.082 24.1222 31.3947 24.6951L26.8604 13.2936L21.6763 26.3289C17.6677 27.0504 13.6081 27.8425 9.6433 28.6983L21.9098 0.77464H32.1027L41.9527 23.1886H41.9452Z" fill="#00703C"/>
<path d="M108.302 18.2308L110.485 15.7129C112.463 17.375 114.442 18.3157 117.012 18.3157C119.254 18.3157 120.678 17.3113 120.678 15.7977V15.7412C120.678 14.3124 119.853 13.5344 116.012 12.6786C111.609 11.646 109.127 10.387 109.127 6.69495V6.63837C109.127 3.20095 112.084 0.831543 116.187 0.831543C119.203 0.831543 121.59 1.71565 123.693 3.34948L121.744 6.00888C119.882 4.66504 118.02 3.95068 116.129 3.95068C114.004 3.95068 112.763 5.01161 112.763 6.32716V6.38374C112.763 7.9327 113.705 8.61878 117.669 9.53118C122.043 10.5638 124.314 12.0774 124.314 15.3946V15.4512C124.314 19.1998 121.269 21.4348 116.932 21.4348C113.77 21.4348 110.791 20.3739 108.309 18.2308H108.302Z" fill="#00703C"/>
<path d="M127.278 13.6828V13.6262C127.278 9.33299 130.703 5.72583 135.376 5.72583C138.333 5.72583 140.158 6.78676 141.611 8.32865L139.399 10.6485C138.304 9.53103 137.157 8.76009 135.354 8.76009C132.755 8.76009 130.864 10.9315 130.864 13.5696V13.6262C130.864 16.3139 132.784 18.4924 135.529 18.4924C137.216 18.4924 138.45 17.7214 139.574 16.6039L141.728 18.6621C140.195 20.3242 138.392 21.4983 135.347 21.4983C130.71 21.4983 127.278 17.976 127.278 13.6828Z" fill="#00703C"/>
<path d="M144.81 0.258301H148.387V8.38503C149.395 6.95631 150.84 5.72563 153.264 5.72563C156.777 5.72563 158.821 8.01724 158.821 11.5325V21.1445H155.244V12.558C155.244 10.2098 154.031 8.86598 151.906 8.86598C149.782 8.86598 148.394 10.2664 148.394 12.6146V21.1445H144.817V0.258301H144.81Z" fill="#00703C"/>
<path d="M162.238 13.6828V13.6262C162.238 9.3047 165.787 5.72583 170.569 5.72583C175.352 5.72583 178.871 9.24812 178.871 13.5696V13.6262C178.871 17.9195 175.323 21.4983 170.511 21.4983C165.699 21.4983 162.238 17.976 162.238 13.6828ZM175.294 13.6828V13.6262C175.294 10.9668 173.315 8.76009 170.511 8.76009C167.707 8.76009 165.816 10.9315 165.816 13.5696V13.6262C165.816 16.2573 167.795 18.4924 170.569 18.4924C173.344 18.4924 175.294 16.2856 175.294 13.6828Z" fill="#00703C"/>
<path d="M181.58 13.6828V13.6262C181.58 9.3047 185.121 5.72583 189.911 5.72583C194.701 5.72583 198.213 9.24812 198.213 13.5696V13.6262C198.213 17.9195 194.665 21.4983 189.853 21.4983C185.041 21.4983 181.58 17.976 181.58 13.6828ZM194.635 13.6828V13.6262C194.635 10.9668 192.657 8.76009 189.853 8.76009C187.049 8.76009 185.158 10.9315 185.158 13.5696V13.6262C185.158 16.2573 187.137 18.4924 189.911 18.4924C192.686 18.4924 194.635 16.2856 194.635 13.6828Z" fill="#00703C"/>
<path d="M201.937 0.258301H205.514V21.1445H201.937V0.258301Z" fill="#00703C"/>
<path d="M218.183 13.6828V13.6262C218.183 9.3047 221.724 5.72583 226.514 5.72583C231.304 5.72583 234.816 9.24812 234.816 13.5696V13.6262C234.816 17.9195 231.267 21.4983 226.456 21.4983C221.644 21.4983 218.183 17.976 218.183 13.6828ZM231.238 13.6828V13.6262C231.238 10.9668 229.259 8.76009 226.456 8.76009C223.652 8.76009 221.761 10.9315 221.761 13.5696V13.6262C221.761 16.2573 223.739 18.4924 226.514 18.4924C229.289 18.4924 231.238 16.2856 231.238 13.6828Z" fill="#00703C"/>
<path d="M238.839 9.01457H236.861V6.12177H238.839V5.03255C238.839 3.34214 239.285 2.08316 240.11 1.28393C240.935 0.484694 242.088 0.081543 243.622 0.081543C244.863 0.081543 245.718 0.251292 246.513 0.484696V3.40579C245.805 3.17946 245.184 3.03093 244.418 3.03093C243.06 3.03093 242.351 3.74529 242.351 5.32254V6.15006H246.484V9.01457H242.41V21.1445H238.832V9.01457H238.839Z" fill="#00703C"/>
<path d="M109.696 29.7451H113.566L119.86 39.2157L126.154 29.7451H130.024V49.7755H126.388V35.4105L119.86 44.8528H119.743L113.274 35.4671V49.7755H109.696V29.7451Z" fill="#00703C"/>
<path d="M134.208 42.2783V42.2217C134.208 37.9002 137.37 34.3567 141.831 34.3567C146.796 34.3567 149.307 38.1336 149.307 42.4834C149.307 42.8017 149.278 43.1129 149.249 43.4595H137.786C138.173 45.9208 139.969 47.293 142.276 47.293C144.021 47.293 145.262 46.6635 146.504 45.4894L148.599 47.293C147.124 49.0117 145.087 50.1221 142.218 50.1221C137.698 50.1221 134.215 46.9464 134.215 42.2854L134.208 42.2783ZM145.759 41.1608C145.525 38.9258 144.167 37.1858 141.802 37.1858C139.618 37.1858 138.078 38.8197 137.756 41.1608H145.759Z" fill="#00703C"/>
<path d="M152.082 42.25V42.1935C152.082 37.1859 155.594 34.3496 159.318 34.3496C161.888 34.3496 163.509 35.6086 164.633 37.009V28.8823H168.211V49.7685H164.633V47.2506C163.48 48.8278 161.859 50.0797 159.318 50.0797C155.652 50.0797 152.082 47.2506 152.082 42.243V42.25ZM164.692 42.25V42.1935C164.692 39.2724 162.567 37.3556 160.172 37.3556C157.777 37.3556 155.681 39.1875 155.681 42.1935V42.25C155.681 45.1711 157.748 47.0879 160.172 47.0879C162.596 47.0879 164.692 45.1428 164.692 42.25Z" fill="#00703C"/>
<path d="M172.643 29.0593H176.484V32.3482H172.643V29.0593ZM172.789 34.6681H176.367V49.7758H172.789V34.6681Z" fill="#00703C"/>
<path d="M190.437 49.7756V47.9155C189.378 49.1461 187.75 50.0868 185.384 50.0868C182.427 50.0868 179.835 48.453 179.835 45.4258V45.3692C179.835 42.0238 182.522 40.4182 186.158 40.4182C188.05 40.4182 189.262 40.6728 190.474 41.0477V40.7577C190.474 38.6641 189.116 37.5254 186.633 37.5254C184.895 37.5254 183.588 37.8932 182.172 38.4661L181.201 35.6865C182.917 34.9438 184.596 34.4275 187.137 34.4275C191.744 34.4275 193.993 36.7757 193.993 40.8072V49.7615H190.445L190.437 49.7756ZM190.525 43.4525C189.612 43.113 188.342 42.8513 186.947 42.8513C184.706 42.8513 183.369 43.7354 183.369 45.1995V45.2561C183.369 46.6848 184.698 47.4911 186.385 47.4911C188.751 47.4911 190.517 46.2038 190.517 44.3154V43.4525H190.525Z" fill="#00703C"/>
<path d="M219.096 47.4555C217.321 49.061 215.255 50.0583 212.743 50.0583C208.903 50.0583 206.011 47.795 206.011 44.3363V44.2798C206.011 41.7052 207.581 39.8451 210.414 38.671C209.231 37.214 208.698 35.955 208.698 34.498V34.4414C208.698 31.7537 210.94 29.4055 214.634 29.4055C217.913 29.4055 220.125 31.5486 220.125 34.2434V34.3C220.125 36.9311 218.322 38.5083 215.576 39.5056L219.118 42.9996C219.914 41.8538 220.658 40.5382 221.337 39.1378L224.083 40.5382C223.258 42.1367 222.345 43.7139 221.279 45.1144L224.528 48.3184L221.841 50.1785L219.096 47.4626V47.4555ZM217.029 45.3973L212.422 40.8494C210.502 41.6487 209.677 42.8793 209.677 44.1666V44.2232C209.677 45.9136 211.122 47.1443 213.13 47.1443C214.547 47.1443 215.846 46.4865 217.029 45.3973ZM216.913 34.498V34.4414C216.913 33.0976 215.934 32.1781 214.547 32.1781C213.072 32.1781 212.093 33.1824 212.093 34.5829V34.6394C212.093 35.6438 212.51 36.3864 213.656 37.6171C215.781 36.8745 216.905 35.9267 216.905 34.498H216.913Z" fill="#00703C"/>
<path d="M236.948 29.7451H244.659C251.157 29.7451 255.647 34.0666 255.647 39.7037V39.7603C255.647 45.3974 251.157 49.7755 244.659 49.7755H236.948V29.7451ZM244.659 46.5715C249.003 46.5715 251.836 43.7423 251.836 39.8169V39.7603C251.836 35.8419 248.996 32.9491 244.659 32.9491H240.584V46.5715H244.659Z" fill="#00703C"/>
<path d="M258.801 42.2783V42.2217C258.801 37.9002 261.963 34.3567 266.424 34.3567C271.389 34.3567 273.901 38.1336 273.901 42.4834C273.901 42.8017 273.872 43.1129 273.843 43.4595H262.379C262.759 45.9208 264.562 47.293 266.87 47.293C268.607 47.293 269.856 46.6635 271.09 45.4894L273.185 47.293C271.711 49.0117 269.673 50.1221 266.804 50.1221C262.284 50.1221 258.801 46.9464 258.801 42.2854V42.2783ZM270.353 41.1608C270.119 38.9258 268.754 37.1858 266.395 37.1858C264.212 37.1858 262.671 38.8197 262.35 41.1608H270.353Z" fill="#00703C"/>
<path d="M276.136 47.802L277.735 45.4538C279.421 46.6845 281.247 47.314 282.846 47.314C284.445 47.314 285.27 46.6845 285.27 45.6802V45.6236C285.27 44.4495 283.62 44.0534 281.787 43.5088C279.48 42.8793 276.917 41.9598 276.917 39.0741V39.0175C276.917 36.153 279.37 34.4131 282.466 34.4131C284.416 34.4131 286.54 35.0709 288.198 36.1318L286.781 38.5932C285.277 37.709 283.678 37.1644 282.378 37.1644C280.991 37.1644 280.195 37.7939 280.195 38.678V38.7346C280.195 39.8238 281.875 40.2765 283.708 40.8494C285.986 41.5355 288.556 42.5398 288.556 45.2558V45.3124C288.556 48.4881 286.015 50.0653 282.766 50.0653C280.553 50.0653 278.1 49.2944 276.15 47.802H276.136Z" fill="#00703C"/>
<path d="M292.082 29.0593H295.923V32.3482H292.082V29.0593ZM292.228 34.6681H295.806V49.7758H292.228V34.6681Z" fill="#00703C"/>
<path d="M300.172 52.6044L301.501 50.0016C303.158 51.006 304.926 51.6001 307.058 51.6001C310.249 51.6001 311.993 50.0016 311.993 46.9674V45.7933C310.694 47.4271 309.073 48.5658 306.503 48.5658C302.837 48.5658 299.413 45.9347 299.413 41.5V41.4435C299.413 36.9805 302.866 34.3494 306.503 34.3494C309.131 34.3494 310.759 35.5235 311.964 36.9239V34.6676H315.535V46.6845C315.535 49.2307 314.856 51.1191 313.556 52.3781C312.14 53.7502 309.956 54.408 307.145 54.408C304.575 54.408 302.18 53.7785 300.172 52.6044ZM312.016 41.5V41.4435C312.016 38.9538 309.92 37.2634 307.437 37.2634C304.955 37.2634 303.005 38.9255 303.005 41.4081V41.4647C303.005 43.9543 304.984 45.6447 307.437 45.6447C309.891 45.6447 312.016 43.926 312.016 41.493V41.5Z" fill="#00703C"/>
<path d="M320.003 34.6679H323.581V37.0161C324.581 35.5874 326.034 34.3567 328.451 34.3567C331.963 34.3567 334 36.6483 334 40.1635V49.7755H330.43V41.1891C330.43 38.8409 329.218 37.497 327.093 37.497C324.968 37.497 323.581 38.8975 323.581 41.2457V49.7755H320.003V34.6679Z" fill="#00703C"/>
<path d="M88.843 49.768V1.11377H91.1504V49.768H88.843Z" fill="#7AC143"/>
</svg>
