<svg width="512" height="512" viewBox="0 0 512 512" fill="none" xmlns="http://www.w3.org/2000/svg">
<path d="M496 8H304C301.878 8 299.843 8.84285 298.343 10.3431C296.843 11.8434 296 13.8783 296 16V160C296 162.122 296.843 164.157 298.343 165.657C299.843 167.157 301.878 168 304 168H328V208C327.999 209.583 328.467 211.131 329.346 212.448C330.225 213.765 331.475 214.791 332.938 215.397C334.4 216.003 336.01 216.161 337.562 215.852C339.115 215.543 340.541 214.78 341.66 213.66L387.31 168H496C498.122 168 500.157 167.157 501.657 165.657C503.157 164.157 504 162.122 504 160V16C504 13.8783 503.157 11.8434 501.657 10.3431C500.157 8.84285 498.122 8 496 8ZM488 152H384C381.878 151.999 379.842 152.841 378.34 154.34L344 188.69V160C344 157.878 343.157 155.843 341.657 154.343C340.157 152.843 338.122 152 336 152H312V24H488V152Z" fill="black" id="id_101"></path>
<path d="M208 344H184V304C184 302.418 183.531 300.871 182.652 299.555C181.773 298.24 180.523 297.214 179.062 296.609C177.6 296.003 175.991 295.845 174.439 296.153C172.887 296.462 171.462 297.224 170.343 298.343L124.687 344H16C13.8783 344 11.8434 344.843 10.3431 346.343C8.84285 347.843 8 349.878 8 352V496C8 498.122 8.84285 500.157 10.3431 501.657C11.8434 503.157 13.8783 504 16 504H208C210.122 504 212.157 503.157 213.657 501.657C215.157 500.157 216 498.122 216 496V352C216 349.878 215.157 347.843 213.657 346.343C212.157 344.843 210.122 344 208 344ZM200 488H24V360H128C129.051 360 130.091 359.793 131.062 359.391C132.032 358.989 132.914 358.4 133.657 357.657L168 323.313V352C168 354.122 168.843 356.157 170.343 357.657C171.843 359.157 173.878 360 176 360H200V488Z" fill="black" id="id_102"></path>
<path d="M496 224H448C445.878 224 443.843 224.843 442.343 226.343C440.843 227.843 440 229.878 440 232V248H368V232C368 229.878 367.157 227.843 365.657 226.343C364.157 224.843 362.122 224 360 224H312C309.878 224 307.843 224.843 306.343 226.343C304.843 227.843 304 229.878 304 232V248H208V232C208 229.878 207.157 227.843 205.657 226.343C204.157 224.843 202.122 224 200 224H152C149.878 224 147.843 224.843 146.343 226.343C144.843 227.843 144 229.878 144 232V248H72V232C72 229.878 71.1571 227.843 69.6569 226.343C68.1566 224.843 66.1217 224 64 224H16C13.8783 224 11.8434 224.843 10.3431 226.343C8.84285 227.843 8 229.878 8 232V280C8 282.122 8.84285 284.157 10.3431 285.657C11.8434 287.157 13.8783 288 16 288H64C66.1217 288 68.1566 287.157 69.6569 285.657C71.1571 284.157 72 282.122 72 280V264H144V280C144 282.122 144.843 284.157 146.343 285.657C147.843 287.157 149.878 288 152 288H200C202.122 288 204.157 287.157 205.657 285.657C207.157 284.157 208 282.122 208 280V264H304V280C304 282.122 304.843 284.157 306.343 285.657C307.843 287.157 309.878 288 312 288H360C362.122 288 364.157 287.157 365.657 285.657C367.157 284.157 368 282.122 368 280V264H440V280C440 282.122 440.843 284.157 442.343 285.657C443.843 287.157 445.878 288 448 288H496C498.122 288 500.157 287.157 501.657 285.657C503.157 284.157 504 282.122 504 280V232C504 229.878 503.157 227.843 501.657 226.343C500.157 224.843 498.122 224 496 224ZM56 272H24V240H56V272ZM192 272H160V240H192V272ZM352 272H320V240H352V272ZM488 272H456V240H488V272Z" fill="#7ac143" id="id_103"></path>
</svg>